<svg xmlns="http://www.w3.org/2000/svg" xmlns:xlink="http://www.w3.org/1999/xlink" width="150" zoomAndPan="magnify" viewBox="0 0 112.5 112.499997" height="150" preserveAspectRatio="xMidYMid meet" version="1.0"><defs><clipPath id="0d8a6dc10d"><path d="M 11.503906 35 L 32 35 L 32 57 L 11.503906 57 Z M 11.503906 35 " clip-rule="nonzero"/></clipPath><clipPath id="29d7a318e9"><path d="M 11.503906 13 L 98 13 L 98 112.003906 L 11.503906 112.003906 Z M 11.503906 13 " clip-rule="nonzero"/></clipPath></defs><path fill="#e5e9f2" d="M 77.417969 38.503906 C 77.417969 41.238281 63.222656 43.453125 45.695312 43.453125 C 28.167969 43.453125 13.972656 41.238281 13.972656 38.503906 C 13.972656 38.503906 12.050781 46.25 12.117188 61.273438 C 12.207031 77.90625 19.742188 104.726562 19.761719 104.769531 C 21.417969 108.242188 31.632812 111.644531 45.695312 111.644531 C 59.867188 111.644531 71.378906 108.53125 71.625 104.683594 C 71.625 104.636719 79.003906 74.4375 79.316406 61.25 C 79.785156 42.492188 77.417969 38.503906 77.417969 38.503906 Z M 77.417969 38.503906 " fill-opacity="1" fill-rule="nonzero"/><path fill="#e5e9f2" d="M 74.957031 90.445312 C 74.957031 90.445312 86.515625 82.207031 93.265625 71.863281 C 99.996094 61.542969 98.429688 47.125 91.613281 43.453125 C 84.792969 39.78125 78.890625 45.289062 78.890625 45.289062 L 79.160156 51.289062 C 79.160156 51.289062 84.679688 46.25 88.75 49.25 C 93.578125 52.8125 91.992188 63.535156 87.320312 70.496094 C 82.648438 77.460938 76.410156 81.78125 76.410156 81.78125 Z M 74.957031 90.445312 " fill-opacity="1" fill-rule="nonzero"/><path fill="#c5c1cf" d="M 77.417969 38.503906 C 77.417969 38.503906 79.785156 42.492188 79.316406 61.273438 C 79.003906 74.460938 71.625 104.660156 71.625 104.703125 C 71.359375 108.554688 59.84375 111.667969 45.695312 111.667969 C 45.695312 111.667969 69.882812 111.933594 73.839844 87.375 C 77.796875 62.816406 77.484375 50.617188 76.007812 40.230469 C 76.03125 40.207031 77.125 39.9375 77.417969 38.503906 Z M 77.417969 38.503906 " fill-opacity="1" fill-rule="nonzero"/><path fill="#fdf4e3" d="M 76.253906 57.847656 C 76.253906 57.847656 76.433594 48.601562 75 40.453125 C 75 40.453125 77.148438 39.828125 77.59375 38.574219 C 77.59375 38.574219 78.175781 38.167969 77.976562 36.78125 C 77.976562 36.78125 81.371094 35.527344 80.390625 31.925781 C 80.164062 31.027344 79.429688 29.394531 77.328125 29.507812 C 77.328125 29.507812 78.355469 28.789062 77.257812 27.46875 C 77.257812 27.46875 78.757812 24.761719 77.371094 23.101562 C 75.984375 21.46875 73.707031 21.738281 73.707031 21.738281 C 73.707031 21.738281 73.882812 18.269531 69.949219 16.992188 C 66.015625 15.714844 64.070312 19.410156 64.070312 19.410156 C 64.070312 19.410156 63.289062 17.550781 61.1875 17.550781 C 59.085938 17.550781 58.59375 19.164062 58.59375 19.164062 C 58.59375 19.164062 58.304688 17.617188 56.132812 17.191406 C 53.964844 16.769531 52.601562 18.269531 52.601562 18.269531 C 52.601562 18.269531 52.109375 17.058594 50.253906 16.835938 C 48.398438 16.609375 47.75 17.976562 47.75 17.976562 C 47.75 17.976562 46.789062 17.058594 44.980469 17.125 C 43.167969 17.191406 42.296875 18.199219 42.296875 18.199219 C 42.296875 18.199219 41.871094 15.199219 38.875 14.441406 C 35.882812 13.679688 33.625 14.730469 32.484375 18.089844 C 32.484375 18.089844 31.03125 17.082031 29.242188 17.6875 C 27.453125 18.289062 26.648438 19.835938 26.648438 19.835938 C 26.648438 19.835938 24.835938 17.058594 22.089844 18.738281 C 19.339844 20.417969 20.546875 22.835938 20.546875 22.835938 C 20.546875 22.835938 17.011719 21.019531 14.554688 23.84375 C 11.625 27.15625 13.636719 29.707031 14.441406 30.871094 C 14.441406 30.871094 12.902344 31.410156 12.832031 32.953125 C 12.765625 34.5 13.480469 34.746094 13.480469 34.746094 C 13.480469 34.746094 11.804688 35.28125 12.027344 37.003906 C 12.253906 38.730469 13.996094 38.617188 13.996094 38.617188 C 13.996094 38.617188 14.710938 39.894531 15.738281 40.230469 C 16.769531 40.542969 17.011719 40.65625 17.011719 40.65625 C 17.011719 40.65625 15.941406 45.648438 15.628906 50.59375 C 15.316406 55.542969 15.269531 57.960938 15.269531 57.960938 C 15.269531 57.960938 25.53125 60.757812 32.4375 61.050781 C 39.347656 61.339844 55.308594 62.078125 66.886719 59.90625 C 78.421875 57.691406 76.253906 57.847656 76.253906 57.847656 Z M 76.253906 57.847656 " fill-opacity="1" fill-rule="nonzero"/><path fill="#f4b74a" d="M 76.253906 57.847656 C 76.253906 57.847656 75.046875 72.378906 73.304688 81.847656 C 71.582031 91.292969 68.789062 102.914062 68.789062 102.914062 C 68.789062 102.914062 66.707031 105.578125 58.707031 106.761719 C 50.703125 107.949219 40.664062 108.332031 34.027344 106.898438 C 27.386719 105.464844 22.714844 103.160156 22.714844 103.160156 C 22.714844 103.160156 19.875 93.621094 18.308594 85.070312 C 16.746094 76.519531 15.136719 64.25 15.136719 61.363281 C 15.136719 58.476562 15.226562 57.914062 15.226562 57.914062 C 15.226562 57.914062 26.738281 60.9375 36.707031 61.25 C 46.679688 61.5625 66.796875 61.070312 76.253906 57.847656 Z M 76.253906 57.847656 " fill-opacity="1" fill-rule="nonzero"/><path fill="#eddcd4" d="M 77.59375 38.574219 C 77.148438 39.828125 75 40.453125 75 40.453125 C 75 40.453125 76.453125 50.125 76.1875 57.199219 C 76.1875 57.199219 76.296875 58.273438 73.28125 58.832031 C 70.285156 59.394531 67.757812 59.707031 67.757812 59.707031 C 68.742188 57.648438 68.832031 48.445312 68.742188 46.699219 C 68.652344 44.929688 65.8125 44.75 65.8125 44.75 C 66.597656 43.765625 64.742188 43.476562 64.742188 43.476562 C 68.453125 41.910156 68.363281 37.992188 68.363281 37.992188 C 68.363281 37.992188 69.433594 39.757812 71.582031 39.15625 C 73.726562 38.574219 73.347656 36.511719 73.347656 36.511719 C 73.347656 36.511719 77.148438 36.894531 77.460938 33.289062 C 77.773438 29.683594 73.660156 28.992188 73.660156 28.992188 C 73.660156 28.992188 75.917969 28.117188 75.136719 26.4375 C 74.351562 24.78125 72.585938 25.566406 72.585938 25.566406 C 72.585938 25.566406 73.863281 21.15625 70.152344 20.191406 C 66.441406 19.207031 63.601562 23.035156 64.09375 22.453125 C 64.585938 21.871094 64.113281 19.453125 64.113281 19.453125 C 64.113281 19.453125 66.082031 15.738281 69.996094 17.035156 C 73.90625 18.335938 73.75 21.78125 73.75 21.78125 C 73.75 21.78125 76.03125 21.492188 77.417969 23.148438 C 78.800781 24.78125 77.304688 27.511719 77.304688 27.511719 C 78.398438 28.835938 77.371094 29.550781 77.371094 29.550781 C 79.472656 29.4375 80.234375 31.09375 80.433594 31.96875 C 81.394531 35.574219 78.019531 36.828125 78.019531 36.828125 C 78.175781 38.167969 77.59375 38.574219 77.59375 38.574219 " fill-opacity="1" fill-rule="nonzero"/><path fill="#c5c1cf" d="M 76.230469 83.570312 C 76.230469 83.570312 79.832031 85.382812 87.742188 75.378906 C 95.65625 65.371094 97.871094 55.519531 96.058594 49.003906 C 96.058594 49.003906 100.351562 57.46875 95.234375 68.59375 C 90.113281 79.699219 75.335938 88.519531 75.335938 88.519531 Z M 76.230469 83.570312 " fill-opacity="1" fill-rule="nonzero"/><path fill="#ffffff" d="M 16.699219 50.660156 C 16.699219 50.660156 16.679688 50.660156 16.679688 50.660156 C 16.523438 50.640625 16.410156 50.503906 16.433594 50.347656 C 16.433594 50.324219 16.632812 48.242188 16.855469 46.183594 C 17.328125 41.839844 17.460938 41.796875 17.707031 41.730469 C 17.863281 41.683594 18.132812 41.75 19.25 41.976562 C 20.882812 42.3125 23.921875 42.914062 28.035156 43.386719 C 35.703125 44.28125 43.839844 44.503906 48.132812 44.371094 C 48.289062 44.371094 48.421875 44.484375 48.421875 44.640625 C 48.421875 44.796875 48.308594 44.929688 48.152344 44.929688 C 43.683594 45.085938 35.722656 44.839844 27.96875 43.945312 C 23.832031 43.476562 20.792969 42.847656 19.136719 42.535156 C 18.625 42.421875 18.175781 42.332031 17.953125 42.3125 C 17.730469 43.183594 17.257812 47.640625 17.011719 50.394531 C 16.96875 50.550781 16.835938 50.660156 16.699219 50.660156 Z M 16.699219 50.660156 " fill-opacity="1" fill-rule="nonzero"/><path fill="#ffffff" d="M 27.765625 20.707031 L 27.273438 20.460938 C 27.296875 20.394531 28.011719 18.960938 29.914062 18.761719 C 31.253906 18.625 32.617188 19.164062 33.242188 19.476562 C 33.289062 19.097656 33.421875 18.46875 33.710938 17.84375 C 34.359375 16.433594 35.5 15.625 37 15.445312 C 40.484375 15.066406 41.449219 19.097656 41.46875 19.117188 L 40.933594 19.253906 C 40.933594 19.253906 40.710938 18.335938 40.128906 17.460938 C 39.347656 16.34375 38.339844 15.851562 37.089844 15.984375 C 35.769531 16.117188 34.832031 16.8125 34.25 18.042969 C 33.824219 18.984375 33.78125 19.902344 33.78125 19.902344 L 33.757812 20.371094 L 33.355469 20.125 C 33.332031 20.125 31.609375 19.117188 29.980469 19.273438 C 28.371094 19.5 27.765625 20.707031 27.765625 20.707031 Z M 27.765625 20.707031 " fill-opacity="1" fill-rule="nonzero"/><path fill="#ffffff" d="M 23.921875 34.386719 C 23.898438 34.386719 23.875 34.386719 23.875 34.386719 C 23.71875 34.363281 23.628906 34.207031 23.652344 34.050781 C 23.675781 33.960938 24.121094 31.589844 25.664062 31.164062 C 26.9375 30.804688 28.035156 31.855469 28.4375 32.28125 C 28.527344 31.429688 28.972656 28.8125 30.917969 28.679688 C 32.773438 28.542969 33.445312 30.378906 33.535156 31.363281 C 33.554688 31.519531 33.445312 31.65625 33.289062 31.675781 C 33.132812 31.699219 32.996094 31.589844 32.976562 31.429688 C 32.976562 31.34375 32.730469 29.125 30.964844 29.261719 C 29.175781 29.394531 28.972656 32.574219 28.972656 32.59375 L 28.949219 32.796875 L 28.257812 32.953125 L 28.144531 32.820312 C 28.125 32.796875 26.984375 31.363281 25.800781 31.699219 C 24.792969 31.992188 24.277344 33.582031 24.191406 34.164062 C 24.191406 34.273438 24.054688 34.386719 23.921875 34.386719 Z M 23.921875 34.386719 " fill-opacity="1" fill-rule="nonzero"/><path fill="#ffffff" d="M 20.097656 99.757812 C 19.964844 99.757812 19.851562 99.667969 19.832031 99.53125 C 19.496094 98.144531 19.160156 96.824219 18.824219 95.503906 C 16.65625 86.882812 14.597656 78.734375 13.4375 63.625 C 12.476562 51.019531 14.667969 41.304688 14.6875 41.214844 C 14.734375 41.058594 14.867188 40.96875 15.023438 41.011719 C 15.179688 41.058594 15.269531 41.191406 15.226562 41.347656 C 15.203125 41.4375 13.035156 51.085938 13.996094 63.578125 C 15.160156 78.644531 17.191406 86.773438 19.359375 95.367188 C 19.695312 96.691406 20.03125 98.03125 20.367188 99.398438 C 20.410156 99.554688 20.320312 99.6875 20.164062 99.734375 C 20.144531 99.757812 20.121094 99.757812 20.097656 99.757812 Z M 20.097656 99.757812 " fill-opacity="1" fill-rule="nonzero"/><g clip-path="url(#0d8a6dc10d)"><path fill="#eddcd4" d="M 31.320312 46.074219 C 27.8125 44.59375 30.292969 41.148438 30.292969 41.148438 C 27.296875 40.519531 28.035156 37.410156 28.035156 37.410156 C 28.035156 37.410156 27.699219 38.484375 25.933594 39 C 22.15625 40.09375 20.722656 36.960938 20.722656 36.960938 C 17.839844 39.511719 15.359375 36.738281 15.359375 36.738281 C 11.851562 37.765625 12.074219 35.886719 12.074219 35.886719 C 11.515625 38.328125 13.324219 38.328125 14.332031 39.332031 C 15.359375 40.363281 18.019531 40.921875 18.019531 40.921875 C 16.542969 47.996094 16.207031 56.683594 16.207031 56.683594 C 16.207031 56.683594 18.085938 44.125 20.835938 44.796875 C 23.585938 45.46875 31.320312 46.074219 31.320312 46.074219 Z M 31.320312 46.074219 " fill-opacity="1" fill-rule="nonzero"/></g><path fill="#f18b37" d="M 67.757812 59.707031 C 67.757812 59.707031 67.15625 71.414062 64.160156 87.0625 C 62.640625 94.988281 60.269531 98.816406 58.304688 100.652344 C 54.546875 100.113281 49.941406 99.667969 44.777344 99.667969 C 30.648438 99.667969 22.714844 103.136719 22.714844 103.136719 C 22.714844 103.136719 27.410156 105.464844 34.027344 106.875 C 40.664062 108.308594 50.703125 107.929688 58.707031 106.742188 C 66.707031 105.554688 68.789062 102.890625 68.789062 102.890625 C 68.789062 102.890625 71.871094 90.199219 73.527344 80.59375 C 75.203125 70.988281 76.253906 57.824219 76.253906 57.824219 Z M 67.757812 59.707031 " fill-opacity="0.5" fill-rule="nonzero"/><path fill="#ffffff" d="M 93.78125 47.617188 C 93.691406 47.617188 93.625 47.574219 93.554688 47.503906 C 91.945312 45.378906 90.894531 44.371094 87.8125 43.699219 C 84.75 43.027344 80.144531 45.9375 80.097656 45.984375 C 79.964844 46.074219 79.785156 46.027344 79.71875 45.894531 C 79.628906 45.757812 79.675781 45.578125 79.808594 45.511719 C 80.007812 45.378906 84.660156 42.445312 87.945312 43.164062 C 91.207031 43.878906 92.347656 44.996094 94.027344 47.191406 C 94.113281 47.304688 94.09375 47.484375 93.980469 47.574219 C 93.890625 47.59375 93.824219 47.617188 93.78125 47.617188 Z M 93.78125 47.617188 " fill-opacity="1" fill-rule="nonzero"/><path fill="#c5c1cf" d="M 80.320312 48.984375 C 80.300781 48.984375 80.277344 48.984375 80.253906 48.984375 C 80.144531 48.9375 80.078125 48.824219 80.121094 48.691406 C 80.144531 48.648438 80.523438 47.484375 82.089844 46.09375 C 82.175781 46.003906 82.3125 46.027344 82.402344 46.117188 C 82.492188 46.207031 82.46875 46.339844 82.378906 46.429688 C 80.902344 47.730469 80.546875 48.804688 80.546875 48.824219 C 80.5 48.914062 80.410156 48.984375 80.320312 48.984375 Z M 80.320312 48.984375 " fill-opacity="1" fill-rule="nonzero"/><path fill="#c5c1cf" d="M 81.863281 48.265625 C 81.820312 48.265625 81.773438 48.242188 81.730469 48.222656 C 81.640625 48.15625 81.617188 47.996094 81.6875 47.910156 C 81.730469 47.839844 82.738281 46.476562 83.921875 45.511719 C 84.011719 45.445312 84.167969 45.445312 84.234375 45.535156 C 84.300781 45.625 84.300781 45.78125 84.210938 45.847656 C 83.070312 46.765625 82.066406 48.132812 82.042969 48.15625 C 82 48.242188 81.933594 48.265625 81.863281 48.265625 Z M 81.863281 48.265625 " fill-opacity="1" fill-rule="nonzero"/><path fill="#c5c1cf" d="M 83.273438 47.839844 C 83.226562 47.839844 83.160156 47.820312 83.140625 47.796875 C 83.050781 47.707031 83.027344 47.574219 83.117188 47.484375 C 83.183594 47.414062 84.59375 45.714844 85.753906 45.15625 C 85.867188 45.109375 86 45.15625 86.046875 45.265625 C 86.089844 45.378906 86.046875 45.511719 85.933594 45.558594 C 84.859375 46.074219 83.453125 47.75 83.453125 47.773438 C 83.40625 47.820312 83.339844 47.839844 83.273438 47.839844 Z M 83.273438 47.839844 " fill-opacity="1" fill-rule="nonzero"/><path fill="#ffffff" d="M 29.109375 24.46875 C 29.109375 24.601562 29.082031 24.730469 29.03125 24.855469 C 28.980469 24.976562 28.90625 25.085938 28.8125 25.179688 C 28.71875 25.277344 28.609375 25.347656 28.488281 25.398438 C 28.363281 25.449219 28.234375 25.476562 28.101562 25.476562 C 27.96875 25.476562 27.839844 25.449219 27.714844 25.398438 C 27.59375 25.347656 27.484375 25.277344 27.390625 25.179688 C 27.296875 25.085938 27.222656 24.976562 27.171875 24.855469 C 27.121094 24.730469 27.09375 24.601562 27.09375 24.46875 C 27.09375 24.335938 27.121094 24.207031 27.171875 24.082031 C 27.222656 23.960938 27.296875 23.851562 27.390625 23.757812 C 27.484375 23.664062 27.59375 23.589844 27.714844 23.539062 C 27.839844 23.488281 27.96875 23.460938 28.101562 23.460938 C 28.234375 23.460938 28.363281 23.488281 28.488281 23.539062 C 28.609375 23.589844 28.71875 23.664062 28.8125 23.757812 C 28.90625 23.851562 28.980469 23.960938 29.03125 24.082031 C 29.082031 24.207031 29.109375 24.335938 29.109375 24.46875 Z M 29.109375 24.46875 " fill-opacity="1" fill-rule="nonzero"/><path fill="#ffffff" d="M 44.265625 29.707031 C 44.265625 29.917969 44.191406 30.097656 44.042969 30.246094 C 43.894531 30.394531 43.714844 30.46875 43.503906 30.46875 C 43.292969 30.46875 43.113281 30.394531 42.964844 30.246094 C 42.816406 30.097656 42.742188 29.917969 42.742188 29.707031 C 42.742188 29.496094 42.816406 29.316406 42.964844 29.167969 C 43.113281 29.019531 43.292969 28.945312 43.503906 28.945312 C 43.714844 28.945312 43.894531 29.019531 44.042969 29.167969 C 44.191406 29.316406 44.265625 29.496094 44.265625 29.707031 Z M 44.265625 29.707031 " fill-opacity="1" fill-rule="nonzero"/><path fill="#ffffff" d="M 52.960938 21.625 C 52.960938 21.8125 52.894531 21.96875 52.761719 22.101562 C 52.632812 22.230469 52.472656 22.296875 52.289062 22.296875 C 52.105469 22.296875 51.945312 22.230469 51.816406 22.101562 C 51.683594 21.96875 51.617188 21.8125 51.617188 21.625 C 51.617188 21.441406 51.683594 21.28125 51.816406 21.152344 C 51.945312 21.019531 52.105469 20.953125 52.289062 20.953125 C 52.472656 20.953125 52.632812 21.019531 52.761719 21.152344 C 52.894531 21.28125 52.960938 21.441406 52.960938 21.625 Z M 52.960938 21.625 " fill-opacity="1" fill-rule="nonzero"/><path fill="#ffffff" d="M 57.722656 29.886719 C 57.722656 30.144531 57.628906 30.367188 57.445312 30.550781 C 57.261719 30.734375 57.042969 30.828125 56.78125 30.828125 C 56.523438 30.828125 56.300781 30.734375 56.117188 30.550781 C 55.933594 30.367188 55.84375 30.144531 55.84375 29.886719 C 55.84375 29.628906 55.933594 29.40625 56.117188 29.222656 C 56.300781 29.039062 56.523438 28.945312 56.78125 28.945312 C 57.042969 28.945312 57.261719 29.039062 57.445312 29.222656 C 57.628906 29.40625 57.722656 29.628906 57.722656 29.886719 Z M 57.722656 29.886719 " fill-opacity="1" fill-rule="nonzero"/><path fill="#ffffff" d="M 60.160156 25.410156 C 60.160156 25.527344 60.117188 25.628906 60.035156 25.710938 C 59.949219 25.792969 59.851562 25.835938 59.734375 25.835938 C 59.617188 25.835938 59.515625 25.792969 59.433594 25.710938 C 59.351562 25.628906 59.308594 25.527344 59.308594 25.410156 C 59.308594 25.292969 59.351562 25.191406 59.433594 25.109375 C 59.515625 25.027344 59.617188 24.984375 59.734375 24.984375 C 59.851562 24.984375 59.949219 25.027344 60.035156 25.109375 C 60.117188 25.191406 60.160156 25.292969 60.160156 25.410156 Z M 60.160156 25.410156 " fill-opacity="1" fill-rule="nonzero"/><path fill="#fdf4e3" d="M 48.914062 10.253906 C 48.914062 10.480469 48.871094 10.695312 48.785156 10.90625 C 48.699219 11.113281 48.574219 11.296875 48.417969 11.457031 C 48.257812 11.617188 48.074219 11.738281 47.863281 11.824219 C 47.65625 11.910156 47.441406 11.953125 47.214844 11.953125 C 46.988281 11.953125 46.773438 11.910156 46.566406 11.824219 C 46.355469 11.738281 46.171875 11.617188 46.011719 11.457031 C 45.855469 11.296875 45.730469 11.113281 45.644531 10.90625 C 45.558594 10.695312 45.515625 10.480469 45.515625 10.253906 C 45.515625 10.027344 45.558594 9.8125 45.644531 9.601562 C 45.730469 9.394531 45.855469 9.210938 46.011719 9.050781 C 46.171875 8.890625 46.355469 8.769531 46.566406 8.679688 C 46.773438 8.59375 46.988281 8.550781 47.214844 8.550781 C 47.441406 8.550781 47.65625 8.59375 47.863281 8.679688 C 48.074219 8.769531 48.257812 8.890625 48.417969 9.050781 C 48.574219 9.210938 48.699219 9.394531 48.785156 9.601562 C 48.871094 9.8125 48.914062 10.027344 48.914062 10.253906 Z M 48.914062 10.253906 " fill-opacity="1" fill-rule="nonzero"/><path fill="#fdf4e3" d="M 57.429688 2.597656 C 57.429688 2.90625 57.371094 3.203125 57.253906 3.488281 C 57.136719 3.773438 56.96875 4.023438 56.75 4.242188 C 56.53125 4.460938 56.28125 4.628906 55.996094 4.746094 C 55.710938 4.867188 55.414062 4.925781 55.105469 4.925781 C 54.796875 4.925781 54.5 4.867188 54.214844 4.746094 C 53.929688 4.628906 53.679688 4.460938 53.460938 4.242188 C 53.246094 4.023438 53.074219 3.773438 52.957031 3.488281 C 52.839844 3.203125 52.78125 2.90625 52.78125 2.597656 C 52.78125 2.289062 52.839844 1.992188 52.957031 1.707031 C 53.074219 1.421875 53.246094 1.167969 53.460938 0.949219 C 53.679688 0.730469 53.929688 0.5625 54.214844 0.445312 C 54.5 0.328125 54.796875 0.269531 55.105469 0.269531 C 55.414062 0.269531 55.710938 0.328125 55.996094 0.445312 C 56.28125 0.5625 56.53125 0.730469 56.75 0.949219 C 56.96875 1.167969 57.136719 1.421875 57.253906 1.707031 C 57.371094 1.992188 57.429688 2.289062 57.429688 2.597656 Z M 57.429688 2.597656 " fill-opacity="1" fill-rule="nonzero"/><path fill="#fdf4e3" d="M 60.941406 8.574219 C 60.941406 8.757812 60.90625 8.933594 60.835938 9.105469 C 60.765625 9.277344 60.664062 9.425781 60.535156 9.554688 C 60.40625 9.6875 60.253906 9.785156 60.085938 9.855469 C 59.914062 9.925781 59.738281 9.960938 59.554688 9.960938 C 59.371094 9.960938 59.195312 9.925781 59.023438 9.855469 C 58.855469 9.785156 58.703125 9.6875 58.574219 9.554688 C 58.445312 9.425781 58.34375 9.277344 58.273438 9.105469 C 58.203125 8.933594 58.167969 8.757812 58.167969 8.574219 C 58.167969 8.390625 58.203125 8.214844 58.273438 8.042969 C 58.34375 7.871094 58.445312 7.722656 58.574219 7.59375 C 58.703125 7.460938 58.855469 7.363281 59.023438 7.292969 C 59.195312 7.222656 59.371094 7.1875 59.554688 7.1875 C 59.738281 7.1875 59.914062 7.222656 60.085938 7.292969 C 60.253906 7.363281 60.40625 7.460938 60.535156 7.59375 C 60.664062 7.722656 60.765625 7.871094 60.835938 8.042969 C 60.90625 8.214844 60.941406 8.390625 60.941406 8.574219 Z M 60.941406 8.574219 " fill-opacity="1" fill-rule="nonzero"/><path fill="#fdf4e3" d="M 40.238281 6.871094 C 40.238281 7.113281 40.195312 7.34375 40.101562 7.566406 C 40.011719 7.789062 39.878906 7.984375 39.710938 8.15625 C 39.539062 8.324219 39.34375 8.457031 39.121094 8.546875 C 38.902344 8.640625 38.667969 8.6875 38.429688 8.6875 C 38.1875 8.6875 37.957031 8.640625 37.738281 8.546875 C 37.515625 8.457031 37.320312 8.324219 37.148438 8.15625 C 36.980469 7.984375 36.847656 7.789062 36.757812 7.566406 C 36.664062 7.34375 36.617188 7.113281 36.617188 6.871094 C 36.617188 6.632812 36.664062 6.402344 36.757812 6.179688 C 36.847656 5.957031 36.980469 5.761719 37.148438 5.589844 C 37.320312 5.421875 37.515625 5.289062 37.738281 5.199219 C 37.957031 5.105469 38.1875 5.058594 38.429688 5.058594 C 38.667969 5.058594 38.902344 5.105469 39.121094 5.199219 C 39.34375 5.289062 39.539062 5.421875 39.710938 5.589844 C 39.878906 5.761719 40.011719 5.957031 40.101562 6.179688 C 40.195312 6.402344 40.238281 6.632812 40.238281 6.871094 Z M 40.238281 6.871094 " fill-opacity="1" fill-rule="nonzero"/><path fill="#ffffff" d="M 50.792969 40.722656 C 50.792969 40.855469 50.765625 40.984375 50.714844 41.109375 C 50.664062 41.230469 50.589844 41.339844 50.496094 41.433594 C 50.402344 41.527344 50.292969 41.601562 50.171875 41.652344 C 50.046875 41.703125 49.917969 41.730469 49.785156 41.730469 C 49.652344 41.730469 49.523438 41.703125 49.402344 41.652344 C 49.277344 41.601562 49.167969 41.527344 49.074219 41.433594 C 48.980469 41.339844 48.90625 41.230469 48.855469 41.109375 C 48.804688 40.984375 48.78125 40.855469 48.78125 40.722656 C 48.78125 40.589844 48.804688 40.460938 48.855469 40.335938 C 48.90625 40.214844 48.980469 40.105469 49.074219 40.007812 C 49.167969 39.914062 49.277344 39.84375 49.402344 39.792969 C 49.523438 39.738281 49.652344 39.714844 49.785156 39.714844 C 49.917969 39.714844 50.046875 39.738281 50.171875 39.792969 C 50.292969 39.84375 50.402344 39.914062 50.496094 40.007812 C 50.589844 40.105469 50.664062 40.214844 50.714844 40.335938 C 50.765625 40.460938 50.792969 40.589844 50.792969 40.722656 Z M 50.792969 40.722656 " fill-opacity="1" fill-rule="nonzero"/><path fill="#ffffff" d="M 69.390625 49.988281 C 69.390625 50.183594 69.355469 50.367188 69.28125 50.546875 C 69.207031 50.726562 69.101562 50.882812 68.964844 51.019531 C 68.828125 51.15625 68.671875 51.261719 68.492188 51.335938 C 68.316406 51.410156 68.128906 51.445312 67.9375 51.445312 C 67.746094 51.445312 67.558594 51.410156 67.382812 51.335938 C 67.203125 51.261719 67.046875 51.15625 66.910156 51.019531 C 66.773438 50.882812 66.667969 50.726562 66.59375 50.546875 C 66.523438 50.367188 66.484375 50.183594 66.484375 49.988281 C 66.484375 49.796875 66.523438 49.613281 66.59375 49.433594 C 66.667969 49.253906 66.773438 49.097656 66.910156 48.960938 C 67.046875 48.824219 67.203125 48.71875 67.382812 48.644531 C 67.558594 48.570312 67.746094 48.535156 67.9375 48.535156 C 68.128906 48.535156 68.316406 48.570312 68.492188 48.644531 C 68.671875 48.71875 68.828125 48.824219 68.964844 48.960938 C 69.101562 49.097656 69.207031 49.253906 69.28125 49.433594 C 69.355469 49.613281 69.390625 49.796875 69.390625 49.988281 Z M 69.390625 49.988281 " fill-opacity="1" fill-rule="nonzero"/><path fill="#ffffff" d="M 72.027344 48.199219 C 72.027344 48.429688 71.949219 48.625 71.785156 48.785156 C 71.625 48.945312 71.429688 49.027344 71.203125 49.027344 C 70.972656 49.027344 70.777344 48.945312 70.617188 48.785156 C 70.457031 48.625 70.375 48.429688 70.375 48.199219 C 70.375 47.96875 70.457031 47.773438 70.617188 47.613281 C 70.777344 47.453125 70.972656 47.371094 71.203125 47.371094 C 71.429688 47.371094 71.625 47.453125 71.785156 47.613281 C 71.949219 47.773438 72.027344 47.96875 72.027344 48.199219 Z M 72.027344 48.199219 " fill-opacity="1" fill-rule="nonzero"/><path fill="#ffffff" d="M 31.164062 53.035156 C 31.164062 53.226562 31.128906 53.414062 31.054688 53.589844 C 30.980469 53.769531 30.875 53.925781 30.738281 54.0625 C 30.601562 54.199219 30.445312 54.304688 30.265625 54.378906 C 30.089844 54.453125 29.902344 54.488281 29.710938 54.488281 C 29.519531 54.488281 29.332031 54.453125 29.15625 54.378906 C 28.976562 54.304688 28.820312 54.199219 28.683594 54.0625 C 28.546875 53.925781 28.441406 53.769531 28.367188 53.589844 C 28.296875 53.414062 28.257812 53.226562 28.257812 53.035156 C 28.257812 52.84375 28.296875 52.65625 28.367188 52.476562 C 28.441406 52.300781 28.546875 52.140625 28.683594 52.007812 C 28.820312 51.871094 28.976562 51.765625 29.15625 51.691406 C 29.332031 51.617188 29.519531 51.578125 29.710938 51.578125 C 29.902344 51.578125 30.089844 51.617188 30.265625 51.691406 C 30.445312 51.765625 30.601562 51.871094 30.738281 52.007812 C 30.875 52.140625 30.980469 52.300781 31.054688 52.476562 C 31.128906 52.65625 31.164062 52.84375 31.164062 53.035156 Z M 31.164062 53.035156 " fill-opacity="1" fill-rule="nonzero"/><path fill="#ffffff" d="M 32.640625 50.394531 C 32.640625 50.632812 32.554688 50.839844 32.382812 51.011719 C 32.214844 51.179688 32.007812 51.265625 31.769531 51.265625 C 31.527344 51.265625 31.320312 51.179688 31.152344 51.011719 C 30.980469 50.839844 30.894531 50.632812 30.894531 50.394531 C 30.894531 50.152344 30.980469 49.945312 31.152344 49.777344 C 31.320312 49.605469 31.527344 49.519531 31.769531 49.519531 C 32.007812 49.519531 32.214844 49.605469 32.382812 49.777344 C 32.554688 49.945312 32.640625 50.152344 32.640625 50.394531 Z M 32.640625 50.394531 " fill-opacity="1" fill-rule="nonzero"/><path fill="#fdf4e3" d="M 42.699219 85.988281 C 42.699219 86.125 42.671875 86.257812 42.621094 86.382812 C 42.570312 86.507812 42.496094 86.621094 42.398438 86.714844 C 42.300781 86.8125 42.191406 86.886719 42.0625 86.941406 C 41.9375 86.992188 41.808594 87.019531 41.671875 87.019531 C 41.535156 87.019531 41.402344 86.992188 41.277344 86.941406 C 41.152344 86.886719 41.039062 86.8125 40.945312 86.714844 C 40.847656 86.621094 40.773438 86.507812 40.722656 86.382812 C 40.667969 86.257812 40.644531 86.125 40.644531 85.988281 C 40.644531 85.851562 40.667969 85.71875 40.722656 85.59375 C 40.773438 85.46875 40.847656 85.355469 40.945312 85.261719 C 41.039062 85.164062 41.152344 85.089844 41.277344 85.035156 C 41.402344 84.984375 41.535156 84.957031 41.671875 84.957031 C 41.808594 84.957031 41.9375 84.984375 42.0625 85.035156 C 42.191406 85.089844 42.300781 85.164062 42.398438 85.261719 C 42.496094 85.355469 42.570312 85.46875 42.621094 85.59375 C 42.671875 85.71875 42.699219 85.851562 42.699219 85.988281 Z M 42.699219 85.988281 " fill-opacity="1" fill-rule="nonzero"/><path fill="#fdf4e3" d="M 59.175781 72.847656 C 59.175781 73.011719 59.144531 73.167969 59.082031 73.320312 C 59.019531 73.46875 58.929688 73.601562 58.816406 73.71875 C 58.699219 73.832031 58.566406 73.921875 58.414062 73.984375 C 58.265625 74.046875 58.109375 74.078125 57.945312 74.078125 C 57.78125 74.078125 57.625 74.046875 57.476562 73.984375 C 57.324219 73.921875 57.191406 73.832031 57.074219 73.71875 C 56.960938 73.601562 56.871094 73.46875 56.808594 73.320312 C 56.746094 73.167969 56.714844 73.011719 56.714844 72.847656 C 56.714844 72.683594 56.746094 72.527344 56.808594 72.375 C 56.871094 72.226562 56.960938 72.09375 57.074219 71.976562 C 57.191406 71.859375 57.324219 71.773438 57.476562 71.710938 C 57.625 71.648438 57.78125 71.617188 57.945312 71.617188 C 58.109375 71.617188 58.265625 71.648438 58.414062 71.710938 C 58.566406 71.773438 58.699219 71.859375 58.816406 71.976562 C 58.929688 72.09375 59.019531 72.226562 59.082031 72.375 C 59.144531 72.527344 59.175781 72.683594 59.175781 72.847656 Z M 59.175781 72.847656 " fill-opacity="1" fill-rule="nonzero"/><path fill="#ffffff" d="M 60.226562 8.238281 C 60.226562 8.335938 60.1875 8.421875 60.113281 8.492188 C 60.039062 8.5625 59.949219 8.597656 59.84375 8.597656 C 59.742188 8.597656 59.652344 8.5625 59.578125 8.492188 C 59.503906 8.421875 59.464844 8.335938 59.464844 8.238281 C 59.464844 8.140625 59.503906 8.054688 59.578125 7.984375 C 59.652344 7.914062 59.742188 7.878906 59.84375 7.878906 C 59.949219 7.878906 60.039062 7.914062 60.113281 7.984375 C 60.1875 8.054688 60.226562 8.140625 60.226562 8.238281 Z M 60.226562 8.238281 " fill-opacity="1" fill-rule="nonzero"/><path fill="#ffffff" d="M 56.359375 1.703125 C 56.359375 1.875 56.296875 2.023438 56.175781 2.144531 C 56.050781 2.265625 55.90625 2.328125 55.730469 2.328125 C 55.558594 2.328125 55.410156 2.265625 55.289062 2.144531 C 55.167969 2.023438 55.105469 1.875 55.105469 1.703125 C 55.105469 1.527344 55.167969 1.378906 55.289062 1.257812 C 55.410156 1.136719 55.558594 1.074219 55.730469 1.074219 C 55.90625 1.074219 56.050781 1.136719 56.175781 1.257812 C 56.296875 1.378906 56.359375 1.527344 56.359375 1.703125 Z M 56.359375 1.703125 " fill-opacity="1" fill-rule="nonzero"/><path fill="#ffffff" d="M 48.042969 9.917969 C 48.042969 10.066406 47.988281 10.191406 47.886719 10.296875 C 47.78125 10.402344 47.652344 10.453125 47.503906 10.453125 C 47.355469 10.453125 47.230469 10.402344 47.125 10.296875 C 47.019531 10.191406 46.96875 10.066406 46.96875 9.917969 C 46.96875 9.769531 47.019531 9.640625 47.125 9.539062 C 47.230469 9.433594 47.355469 9.378906 47.503906 9.378906 C 47.652344 9.378906 47.78125 9.433594 47.886719 9.539062 C 47.988281 9.640625 48.042969 9.769531 48.042969 9.917969 Z M 48.042969 9.917969 " fill-opacity="1" fill-rule="nonzero"/><path fill="#ffffff" d="M 39.367188 6.582031 C 39.367188 6.738281 39.3125 6.867188 39.203125 6.976562 C 39.09375 7.085938 38.964844 7.140625 38.808594 7.140625 C 38.65625 7.140625 38.523438 7.085938 38.414062 6.976562 C 38.304688 6.867188 38.25 6.738281 38.25 6.582031 C 38.25 6.425781 38.304688 6.296875 38.414062 6.1875 C 38.523438 6.078125 38.65625 6.023438 38.808594 6.023438 C 38.964844 6.023438 39.09375 6.078125 39.203125 6.1875 C 39.3125 6.296875 39.367188 6.425781 39.367188 6.582031 Z M 39.367188 6.582031 " fill-opacity="1" fill-rule="nonzero"/><path fill="#1d1d1b" d="M 44.285156 34.007812 C 44.441406 34.007812 44.578125 33.894531 44.578125 33.738281 C 44.578125 33.714844 44.667969 32.527344 45.449219 32.035156 C 45.964844 31.722656 46.679688 31.746094 47.574219 32.148438 C 47.660156 32.191406 47.75 32.171875 47.820312 32.125 C 47.886719 32.082031 47.953125 31.992188 47.953125 31.902344 C 47.953125 31.878906 48.042969 30.445312 48.980469 29.84375 C 49.539062 29.484375 50.300781 29.484375 51.238281 29.820312 C 51.371094 29.863281 51.550781 29.796875 51.597656 29.664062 C 51.640625 29.527344 51.574219 29.347656 51.441406 29.304688 C 50.320312 28.878906 49.382812 28.902344 48.667969 29.371094 C 47.820312 29.929688 47.527344 30.9375 47.4375 31.476562 C 46.523438 31.164062 45.738281 31.183594 45.136719 31.542969 C 44.085938 32.191406 43.996094 33.625 43.996094 33.671875 C 43.996094 33.871094 44.128906 34.007812 44.285156 34.007812 Z M 44.285156 34.007812 " fill-opacity="1" fill-rule="nonzero"/><path fill="#1d1d1b" d="M 54.210938 38.28125 C 54.234375 38.28125 54.234375 38.28125 54.257812 38.28125 C 54.390625 38.28125 54.503906 38.191406 54.523438 38.058594 C 54.546875 37.96875 54.925781 35.730469 57.5 35.839844 C 57.65625 35.839844 57.789062 35.730469 57.789062 35.574219 C 57.789062 35.460938 57.945312 32.886719 60.316406 32.082031 C 62.640625 31.273438 63.9375 33.492188 63.980469 33.582031 C 64.046875 33.691406 64.203125 33.757812 64.316406 33.691406 C 64.339844 33.691406 66.261719 32.929688 67.402344 33.511719 C 67.78125 33.714844 68.027344 34.027344 68.140625 34.519531 C 68.183594 34.675781 68.316406 34.765625 68.472656 34.722656 C 68.628906 34.675781 68.71875 34.542969 68.675781 34.386719 C 68.519531 33.757812 68.160156 33.289062 67.648438 33.019531 C 66.53125 32.4375 64.898438 32.886719 64.316406 33.089844 C 63.890625 32.484375 62.417969 30.738281 60.113281 31.519531 C 57.878906 32.28125 57.363281 34.476562 57.253906 35.238281 C 54.414062 35.257812 53.964844 37.902344 53.964844 37.921875 C 53.964844 38.125 54.078125 38.257812 54.210938 38.28125 Z M 54.210938 38.28125 " fill-opacity="1" fill-rule="nonzero"/><path fill="#1d1d1b" d="M 28.101562 25.746094 C 28.816406 25.746094 29.375 25.164062 29.375 24.46875 C 29.375 23.753906 28.792969 23.191406 28.101562 23.191406 C 27.410156 23.191406 26.828125 23.773438 26.828125 24.46875 C 26.828125 25.183594 27.386719 25.746094 28.101562 25.746094 Z M 28.101562 23.753906 C 28.503906 23.753906 28.816406 24.089844 28.816406 24.46875 C 28.816406 24.871094 28.480469 25.183594 28.101562 25.183594 C 27.722656 25.183594 27.386719 24.847656 27.386719 24.46875 C 27.386719 24.066406 27.699219 23.753906 28.101562 23.753906 Z M 28.101562 23.753906 " fill-opacity="1" fill-rule="nonzero"/><path fill="#1d1d1b" d="M 43.503906 30.757812 C 44.085938 30.757812 44.554688 30.289062 44.554688 29.707031 C 44.554688 29.125 44.085938 28.65625 43.503906 28.65625 C 42.921875 28.65625 42.453125 29.125 42.453125 29.707031 C 42.453125 30.289062 42.921875 30.757812 43.503906 30.757812 Z M 43.503906 29.238281 C 43.773438 29.238281 43.996094 29.460938 43.996094 29.730469 C 43.996094 30 43.773438 30.222656 43.503906 30.222656 C 43.234375 30.222656 43.011719 30 43.011719 29.730469 C 43.011719 29.4375 43.234375 29.238281 43.503906 29.238281 Z M 43.503906 29.238281 " fill-opacity="1" fill-rule="nonzero"/><path fill="#1d1d1b" d="M 52.289062 22.589844 C 52.804688 22.589844 53.226562 22.164062 53.226562 21.648438 C 53.226562 21.132812 52.804688 20.707031 52.289062 20.707031 C 51.773438 20.707031 51.351562 21.132812 51.351562 21.648438 C 51.351562 22.164062 51.773438 22.589844 52.289062 22.589844 Z M 52.289062 21.246094 C 52.511719 21.246094 52.667969 21.425781 52.667969 21.625 C 52.667969 21.851562 52.492188 22.007812 52.289062 22.007812 C 52.066406 22.007812 51.910156 21.828125 51.910156 21.625 C 51.910156 21.425781 52.089844 21.246094 52.289062 21.246094 Z M 52.289062 21.246094 " fill-opacity="1" fill-rule="nonzero"/><path fill="#1d1d1b" d="M 56.78125 31.117188 C 57.453125 31.117188 58.011719 30.558594 58.011719 29.886719 C 58.011719 29.214844 57.453125 28.65625 56.78125 28.65625 C 56.113281 28.65625 55.554688 29.214844 55.554688 29.886719 C 55.554688 30.558594 56.089844 31.117188 56.78125 31.117188 Z M 56.78125 29.238281 C 57.140625 29.238281 57.453125 29.527344 57.453125 29.910156 C 57.453125 30.265625 57.164062 30.582031 56.78125 30.582031 C 56.402344 30.582031 56.113281 30.289062 56.113281 29.910156 C 56.113281 29.527344 56.402344 29.238281 56.78125 29.238281 Z M 56.78125 29.238281 " fill-opacity="1" fill-rule="nonzero"/><path fill="#1d1d1b" d="M 59.734375 26.125 C 60.113281 26.125 60.449219 25.8125 60.449219 25.410156 C 60.449219 25.027344 60.136719 24.691406 59.734375 24.691406 C 59.332031 24.691406 59.019531 25.007812 59.019531 25.410156 C 59.019531 25.8125 59.332031 26.125 59.734375 26.125 Z M 59.734375 25.273438 C 59.824219 25.273438 59.890625 25.34375 59.890625 25.433594 C 59.890625 25.519531 59.824219 25.589844 59.734375 25.589844 C 59.644531 25.589844 59.578125 25.519531 59.578125 25.433594 C 59.578125 25.34375 59.644531 25.273438 59.734375 25.273438 Z M 59.734375 25.273438 " fill-opacity="1" fill-rule="nonzero"/><path fill="#1d1d1b" d="M 23.628906 32.953125 C 23.789062 32.953125 23.898438 32.820312 23.898438 32.683594 C 23.898438 31.429688 24.925781 30.402344 26.179688 30.402344 C 26.761719 30.402344 27.296875 30.625 27.722656 31.007812 C 27.8125 31.09375 27.945312 31.09375 28.035156 31.050781 C 28.144531 31.007812 28.191406 30.894531 28.191406 30.757812 C 28.167969 30.625 28.167969 30.492188 28.167969 30.378906 C 28.167969 28.8125 29.441406 27.511719 31.03125 27.511719 C 32.59375 27.511719 33.890625 28.789062 33.890625 30.378906 C 33.890625 30.535156 34.027344 30.648438 34.160156 30.648438 C 34.292969 30.648438 34.429688 30.511719 34.429688 30.378906 C 34.429688 28.5 32.886719 26.953125 31.007812 26.953125 C 29.175781 26.953125 27.675781 28.410156 27.585938 30.199219 C 27.164062 29.953125 26.671875 29.820312 26.15625 29.820312 C 24.59375 29.820312 23.316406 31.09375 23.316406 32.664062 C 23.339844 32.820312 23.472656 32.953125 23.628906 32.953125 Z M 23.628906 32.953125 " fill-opacity="1" fill-rule="nonzero"/><path fill="#1d1d1b" d="M 47.214844 12.246094 C 48.308594 12.246094 49.183594 11.351562 49.183594 10.277344 C 49.183594 9.179688 48.289062 8.304688 47.214844 8.304688 C 46.121094 8.304688 45.246094 9.199219 45.246094 10.277344 C 45.226562 11.351562 46.121094 12.246094 47.214844 12.246094 Z M 47.214844 8.84375 C 47.996094 8.84375 48.625 9.46875 48.625 10.253906 C 48.625 11.035156 47.996094 11.664062 47.214844 11.664062 C 46.433594 11.664062 45.804688 11.035156 45.804688 10.253906 C 45.804688 9.46875 46.433594 8.84375 47.214844 8.84375 Z M 47.214844 8.84375 " fill-opacity="1" fill-rule="nonzero"/><path fill="#1d1d1b" d="M 55.105469 5.214844 C 56.535156 5.214844 57.699219 4.050781 57.699219 2.621094 C 57.699219 1.164062 56.535156 0 55.105469 0 C 53.675781 0 52.511719 1.164062 52.511719 2.597656 C 52.511719 4.03125 53.675781 5.214844 55.105469 5.214844 Z M 55.105469 0.558594 C 56.222656 0.558594 57.140625 1.476562 57.140625 2.597656 C 57.140625 3.714844 56.222656 4.632812 55.105469 4.632812 C 53.988281 4.632812 53.070312 3.714844 53.070312 2.597656 C 53.070312 1.476562 53.988281 0.558594 55.105469 0.558594 Z M 55.105469 0.558594 " fill-opacity="1" fill-rule="nonzero"/><path fill="#1d1d1b" d="M 59.554688 10.230469 C 60.472656 10.230469 61.207031 9.492188 61.207031 8.574219 C 61.207031 7.65625 60.472656 6.917969 59.554688 6.917969 C 58.636719 6.917969 57.902344 7.65625 57.902344 8.574219 C 57.902344 9.492188 58.636719 10.230469 59.554688 10.230469 Z M 59.554688 7.453125 C 60.160156 7.453125 60.648438 7.949219 60.648438 8.550781 C 60.648438 9.15625 60.160156 9.648438 59.554688 9.648438 C 58.949219 9.648438 58.460938 9.15625 58.460938 8.550781 C 58.460938 7.949219 58.949219 7.453125 59.554688 7.453125 Z M 59.554688 7.453125 " fill-opacity="1" fill-rule="nonzero"/><path fill="#1d1d1b" d="M 38.429688 8.976562 C 39.59375 8.976562 40.53125 8.035156 40.53125 6.871094 C 40.53125 5.707031 39.59375 4.769531 38.429688 4.769531 C 37.265625 4.769531 36.328125 5.707031 36.328125 6.871094 C 36.328125 8.035156 37.265625 8.976562 38.429688 8.976562 Z M 38.429688 5.328125 C 39.277344 5.328125 39.972656 6.023438 39.972656 6.871094 C 39.972656 7.722656 39.277344 8.417969 38.429688 8.417969 C 37.578125 8.417969 36.886719 7.722656 36.886719 6.871094 C 36.886719 6.023438 37.578125 5.328125 38.429688 5.328125 Z M 38.429688 5.328125 " fill-opacity="1" fill-rule="nonzero"/><path fill="#1d1d1b" d="M 49.785156 39.421875 C 49.070312 39.421875 48.511719 40.003906 48.511719 40.699219 C 48.511719 41.394531 49.09375 41.976562 49.785156 41.976562 C 50.5 41.976562 51.058594 41.394531 51.058594 40.699219 C 51.058594 40.003906 50.480469 39.421875 49.785156 39.421875 Z M 49.785156 41.4375 C 49.382812 41.4375 49.070312 41.101562 49.070312 40.722656 C 49.070312 40.339844 49.40625 40.003906 49.785156 40.003906 C 50.1875 40.003906 50.5 40.339844 50.5 40.722656 C 50.5 41.101562 50.164062 41.4375 49.785156 41.4375 Z M 49.785156 41.4375 " fill-opacity="1" fill-rule="nonzero"/><path fill="#1d1d1b" d="M 71.203125 47.078125 C 70.597656 47.078125 70.082031 47.574219 70.082031 48.199219 C 70.082031 48.804688 70.574219 49.320312 71.203125 49.320312 C 71.804688 49.320312 72.320312 48.824219 72.320312 48.199219 C 72.320312 47.574219 71.828125 47.078125 71.203125 47.078125 Z M 71.203125 48.738281 C 70.886719 48.738281 70.644531 48.492188 70.644531 48.175781 C 70.644531 47.863281 70.886719 47.617188 71.203125 47.617188 C 71.515625 47.617188 71.761719 47.863281 71.761719 48.175781 C 71.761719 48.492188 71.515625 48.738281 71.203125 48.738281 Z M 71.203125 48.738281 " fill-opacity="1" fill-rule="nonzero"/><path fill="#1d1d1b" d="M 29.710938 51.289062 C 28.75 51.289062 27.96875 52.070312 27.96875 53.035156 C 27.96875 53.996094 28.75 54.78125 29.710938 54.78125 C 30.671875 54.78125 31.453125 53.996094 31.453125 53.035156 C 31.453125 52.070312 30.671875 51.289062 29.710938 51.289062 Z M 29.710938 54.222656 C 29.0625 54.222656 28.527344 53.683594 28.527344 53.035156 C 28.527344 52.386719 29.0625 51.847656 29.710938 51.847656 C 30.359375 51.847656 30.894531 52.386719 30.894531 53.035156 C 30.894531 53.683594 30.382812 54.222656 29.710938 54.222656 Z M 29.710938 54.222656 " fill-opacity="1" fill-rule="nonzero"/><path fill="#1d1d1b" d="M 31.769531 49.230469 C 31.121094 49.230469 30.605469 49.742188 30.605469 50.394531 C 30.605469 51.042969 31.121094 51.558594 31.769531 51.558594 C 32.417969 51.558594 32.929688 51.042969 32.929688 50.394531 C 32.929688 49.742188 32.417969 49.230469 31.769531 49.230469 Z M 31.769531 50.996094 C 31.433594 50.996094 31.164062 50.730469 31.164062 50.394531 C 31.164062 50.058594 31.433594 49.789062 31.769531 49.789062 C 32.101562 49.789062 32.371094 50.058594 32.371094 50.394531 C 32.371094 50.730469 32.101562 50.996094 31.769531 50.996094 Z M 31.769531 50.996094 " fill-opacity="1" fill-rule="nonzero"/><path fill="#1d1d1b" d="M 41.671875 87.285156 C 42.386719 87.285156 42.96875 86.703125 42.96875 85.988281 C 42.96875 85.273438 42.386719 84.691406 41.671875 84.691406 C 40.957031 84.691406 40.375 85.273438 40.375 85.988281 C 40.351562 86.703125 40.957031 87.285156 41.671875 87.285156 Z M 41.671875 85.226562 C 42.074219 85.226562 42.410156 85.5625 42.410156 85.964844 C 42.410156 86.367188 42.074219 86.703125 41.671875 86.703125 C 41.269531 86.703125 40.933594 86.367188 40.933594 85.964844 C 40.933594 85.5625 41.246094 85.226562 41.671875 85.226562 Z M 41.671875 85.226562 " fill-opacity="1" fill-rule="nonzero"/><path fill="#1d1d1b" d="M 70.800781 44.011719 C 70.777344 43.855469 70.621094 43.765625 70.484375 43.789062 C 70.375 43.8125 59.441406 45.691406 45.671875 45.445312 C 28.863281 45.15625 21.664062 43.8125 21.597656 43.8125 C 21.441406 43.789062 21.304688 43.878906 21.261719 44.035156 C 21.238281 44.191406 21.328125 44.328125 21.484375 44.371094 C 21.550781 44.394531 28.792969 45.714844 45.648438 46.027344 C 46.5 46.050781 47.328125 46.050781 48.152344 46.050781 C 60.785156 46.050781 70.464844 44.371094 70.574219 44.347656 C 70.710938 44.304688 70.820312 44.167969 70.800781 44.011719 Z M 70.800781 44.011719 " fill-opacity="1" fill-rule="nonzero"/><path fill="#1d1d1b" d="M 55.933594 50.058594 C 55.777344 50.058594 55.644531 50.167969 55.644531 50.324219 C 55.644531 50.371094 55.441406 55.675781 55.285156 58.296875 C 55.285156 58.453125 55.398438 58.585938 55.554688 58.585938 C 55.554688 58.585938 55.554688 58.585938 55.574219 58.585938 C 55.730469 58.585938 55.84375 58.476562 55.84375 58.316406 C 55.976562 55.675781 56.203125 50.394531 56.203125 50.324219 C 56.203125 50.191406 56.089844 50.058594 55.933594 50.058594 Z M 55.933594 50.058594 " fill-opacity="1" fill-rule="nonzero"/><path fill="#1d1d1b" d="M 56.984375 52.855469 C 56.828125 52.855469 56.691406 52.96875 56.691406 53.125 C 56.671875 53.371094 56.402344 59.144531 56.402344 59.707031 C 56.402344 59.863281 56.535156 59.976562 56.671875 59.976562 C 56.828125 59.976562 56.9375 59.839844 56.9375 59.707031 C 56.9375 59.167969 57.207031 53.191406 57.207031 53.148438 C 57.253906 52.988281 57.140625 52.855469 56.984375 52.855469 Z M 56.984375 52.855469 " fill-opacity="1" fill-rule="nonzero"/><path fill="#1d1d1b" d="M 58.078125 53.839844 C 57.921875 53.839844 57.789062 53.953125 57.789062 54.109375 C 57.765625 55.296875 57.699219 58.476562 57.585938 59.035156 C 57.566406 59.191406 57.65625 59.324219 57.8125 59.371094 C 57.832031 59.371094 57.855469 59.371094 57.855469 59.371094 C 57.988281 59.371094 58.101562 59.28125 58.125 59.144531 C 58.257812 58.429688 58.347656 54.3125 58.347656 54.132812 C 58.371094 53.976562 58.234375 53.839844 58.078125 53.839844 Z M 58.078125 53.839844 " fill-opacity="1" fill-rule="nonzero"/><path fill="#1d1d1b" d="M 72.429688 42.871094 C 72.273438 42.914062 72.183594 43.074219 72.230469 43.207031 C 72.230469 43.230469 72.765625 45.246094 72.902344 47.28125 C 72.902344 47.4375 73.035156 47.550781 73.167969 47.550781 C 73.167969 47.550781 73.167969 47.550781 73.191406 47.550781 C 73.347656 47.550781 73.460938 47.414062 73.460938 47.257812 C 73.347656 45.175781 72.789062 43.164062 72.765625 43.074219 C 72.722656 42.914062 72.566406 42.828125 72.429688 42.871094 Z M 72.429688 42.871094 " fill-opacity="1" fill-rule="nonzero"/><path fill="#1d1d1b" d="M 73.683594 42.582031 C 73.527344 42.625 73.4375 42.78125 73.480469 42.914062 C 73.480469 42.9375 74.242188 45.914062 74.285156 48.421875 C 74.285156 48.578125 74.421875 48.691406 74.554688 48.691406 C 74.710938 48.691406 74.824219 48.558594 74.824219 48.402344 C 74.777344 45.828125 74.039062 42.894531 73.996094 42.757812 C 73.972656 42.648438 73.839844 42.558594 73.683594 42.582031 Z M 73.683594 42.582031 " fill-opacity="1" fill-rule="nonzero"/><path fill="#1d1d1b" d="M 75.179688 42.3125 C 75.023438 42.355469 74.933594 42.492188 74.980469 42.648438 C 74.980469 42.667969 75.695312 45.871094 75.828125 50.324219 C 75.828125 50.484375 75.964844 50.59375 76.097656 50.59375 C 76.253906 50.59375 76.367188 50.460938 76.367188 50.304688 C 76.230469 45.78125 75.515625 42.558594 75.515625 42.511719 C 75.472656 42.378906 75.316406 42.289062 75.179688 42.3125 Z M 75.179688 42.3125 " fill-opacity="1" fill-rule="nonzero"/><path fill="#1d1d1b" d="M 73.28125 76.046875 C 73.304688 76.046875 73.304688 76.046875 73.324219 76.046875 C 73.460938 76.046875 73.570312 75.960938 73.59375 75.800781 C 74.621094 69.355469 75.046875 63.289062 75.046875 63.222656 C 75.046875 63.0625 74.933594 62.929688 74.777344 62.929688 C 74.621094 62.929688 74.488281 63.042969 74.488281 63.199219 C 74.488281 63.265625 74.0625 69.308594 73.035156 75.734375 C 73.035156 75.871094 73.125 76.027344 73.28125 76.046875 Z M 73.28125 76.046875 " fill-opacity="1" fill-rule="nonzero"/><path fill="#1d1d1b" d="M 72.230469 74.324219 C 72.253906 74.324219 72.253906 74.324219 72.273438 74.324219 C 72.410156 74.324219 72.519531 74.234375 72.542969 74.101562 C 73.414062 69.085938 73.527344 65.460938 73.527344 65.414062 C 73.527344 65.257812 73.414062 65.125 73.257812 65.125 C 73.101562 65.101562 72.96875 65.234375 72.96875 65.390625 C 72.96875 65.4375 72.855469 69.019531 71.984375 73.988281 C 71.984375 74.144531 72.09375 74.300781 72.230469 74.324219 Z M 72.230469 74.324219 " fill-opacity="1" fill-rule="nonzero"/><path fill="#1d1d1b" d="M 71.46875 71.570312 C 71.492188 71.570312 71.492188 71.570312 71.515625 71.570312 C 71.648438 71.570312 71.761719 71.480469 71.78125 71.324219 C 72.207031 68.460938 72.09375 66.398438 72.09375 66.332031 C 72.09375 66.175781 71.960938 66.0625 71.804688 66.0625 C 71.648438 66.0625 71.535156 66.199219 71.535156 66.355469 C 71.535156 66.378906 71.625 68.4375 71.222656 71.257812 C 71.203125 71.390625 71.3125 71.550781 71.46875 71.570312 Z M 71.46875 71.570312 " fill-opacity="1" fill-rule="nonzero"/><path fill="#1d1d1b" d="M 57.945312 74.371094 C 58.773438 74.371094 59.464844 73.699219 59.464844 72.847656 C 59.464844 72.019531 58.792969 71.324219 57.945312 71.324219 C 57.117188 71.324219 56.425781 71.996094 56.425781 72.847656 C 56.425781 73.675781 57.09375 74.371094 57.945312 74.371094 Z M 57.945312 71.882812 C 58.480469 71.882812 58.90625 72.308594 58.90625 72.847656 C 58.90625 73.382812 58.480469 73.808594 57.945312 73.808594 C 57.410156 73.808594 56.984375 73.382812 56.984375 72.847656 C 56.984375 72.308594 57.410156 71.882812 57.945312 71.882812 Z M 57.945312 71.882812 " fill-opacity="1" fill-rule="nonzero"/><path fill="#1d1d1b" d="M 53.183594 65.527344 C 53.628906 65.527344 53.988281 65.167969 53.988281 64.722656 C 53.988281 64.273438 53.628906 63.914062 53.183594 63.914062 C 52.738281 63.914062 52.378906 64.273438 52.378906 64.722656 C 52.378906 65.167969 52.757812 65.527344 53.183594 65.527344 Z M 53.183594 64.496094 C 53.316406 64.496094 53.429688 64.609375 53.429688 64.742188 C 53.429688 64.878906 53.316406 64.988281 53.183594 64.988281 C 53.050781 64.988281 52.9375 64.878906 52.9375 64.742188 C 52.960938 64.609375 53.050781 64.496094 53.183594 64.496094 Z M 53.183594 64.496094 " fill-opacity="1" fill-rule="nonzero"/><path fill="#1d1d1b" d="M 92.347656 53.640625 C 92.191406 53.683594 92.125 53.839844 92.171875 53.996094 C 92.171875 54.019531 92.707031 55.855469 92.460938 58.207031 C 92.4375 58.363281 92.550781 58.496094 92.707031 58.519531 C 92.707031 58.519531 92.730469 58.519531 92.730469 58.519531 C 92.863281 58.519531 92.996094 58.40625 92.996094 58.273438 C 93.265625 55.8125 92.707031 53.929688 92.683594 53.839844 C 92.640625 53.683594 92.484375 53.59375 92.347656 53.640625 Z M 92.347656 53.640625 " fill-opacity="1" fill-rule="nonzero"/><path fill="#1d1d1b" d="M 93.535156 54.691406 C 93.378906 54.734375 93.289062 54.871094 93.332031 55.027344 C 93.332031 55.050781 93.625 56.257812 93.421875 57.847656 C 93.398438 58.003906 93.511719 58.140625 93.667969 58.160156 C 93.691406 58.160156 93.691406 58.160156 93.710938 58.160156 C 93.847656 58.160156 93.980469 58.050781 93.980469 57.914062 C 94.203125 56.234375 93.890625 54.960938 93.890625 54.894531 C 93.824219 54.734375 93.691406 54.648438 93.535156 54.691406 Z M 93.535156 54.691406 " fill-opacity="1" fill-rule="nonzero"/><path fill="#1d1d1b" d="M 94.496094 55.003906 C 94.339844 55.027344 94.226562 55.160156 94.25 55.316406 C 94.25 55.316406 94.359375 56.214844 94.339844 57.109375 C 94.339844 57.265625 94.449219 57.398438 94.605469 57.398438 C 94.605469 57.398438 94.605469 57.398438 94.628906 57.398438 C 94.785156 57.398438 94.898438 57.289062 94.898438 57.132812 C 94.941406 56.191406 94.808594 55.273438 94.808594 55.25 C 94.808594 55.09375 94.652344 54.984375 94.496094 55.003906 Z M 94.496094 55.003906 " fill-opacity="1" fill-rule="nonzero"/><path fill="#1d1d1b" d="M 42.519531 89.144531 C 42.519531 89.191406 42.832031 93.511719 42.945312 96.21875 C 42.945312 96.375 43.078125 96.488281 43.214844 96.488281 C 43.371094 96.488281 43.480469 96.355469 43.480469 96.195312 C 43.371094 93.488281 43.058594 89.144531 43.058594 89.101562 C 43.058594 88.945312 42.921875 88.832031 42.765625 88.832031 C 42.609375 88.855469 42.496094 88.988281 42.519531 89.144531 Z M 42.519531 89.144531 " fill-opacity="1" fill-rule="nonzero"/><path fill="#1d1d1b" d="M 59.757812 95.75 C 59.914062 95.75 60.046875 95.636719 60.046875 95.503906 C 60.5625 88.808594 60.785156 81.621094 60.785156 81.554688 C 60.785156 81.398438 60.671875 81.265625 60.515625 81.265625 C 60.359375 81.242188 60.226562 81.375 60.226562 81.535156 C 60.226562 81.601562 60 88.785156 59.488281 95.457031 C 59.488281 95.59375 59.597656 95.726562 59.757812 95.75 Z M 59.757812 95.75 " fill-opacity="1" fill-rule="nonzero"/><path fill="#1d1d1b" d="M 65.144531 81.800781 C 65.300781 81.800781 65.433594 81.691406 65.433594 81.535156 C 65.546875 79.964844 65.949219 74.929688 65.96875 74.882812 C 65.992188 74.726562 65.859375 74.59375 65.722656 74.59375 C 65.566406 74.570312 65.433594 74.707031 65.433594 74.839844 C 65.433594 74.882812 65.007812 79.921875 64.898438 81.488281 C 64.851562 81.667969 64.988281 81.800781 65.144531 81.800781 Z M 65.144531 81.800781 " fill-opacity="1" fill-rule="nonzero"/><g clip-path="url(#29d7a318e9)"><path fill="#1d1d1b" d="M 97.15625 51.242188 C 96.171875 47.414062 94.25 44.550781 91.722656 43.183594 C 85.84375 40.027344 80.566406 43.542969 79.09375 44.707031 C 78.644531 40.878906 78.042969 39.175781 77.796875 38.59375 C 78.085938 38.371094 78.464844 37.878906 78.222656 36.847656 C 79.003906 36.445312 81.460938 34.902344 80.746094 32.082031 C 80.210938 30 78.890625 29.304688 77.90625 29.214844 C 77.953125 29.125 77.996094 29.035156 78.019531 28.925781 C 78.132812 28.476562 77.976562 27.984375 77.574219 27.445312 C 78.019531 26.820312 78.289062 26.058594 78.289062 25.230469 C 78.289062 23.125 76.589844 21.425781 74.488281 21.425781 C 74.332031 21.425781 74.152344 21.425781 73.996094 21.445312 C 73.726562 18.671875 71.378906 16.523438 68.5625 16.523438 C 66.753906 16.523438 65.078125 17.417969 64.070312 18.894531 C 63.511719 17.910156 62.460938 17.28125 61.320312 17.28125 C 60.292969 17.28125 59.332031 17.773438 58.75 18.605469 C 58.011719 17.484375 56.78125 16.789062 55.417969 16.789062 C 54.414062 16.789062 53.429688 17.191406 52.691406 17.886719 C 52.066406 17.082031 51.128906 16.589844 50.097656 16.589844 C 49.160156 16.589844 48.289062 16.992188 47.660156 17.6875 C 46.925781 17.148438 46.03125 16.855469 45.113281 16.855469 C 44.175781 16.855469 43.257812 17.171875 42.519531 17.707031 C 41.828125 15.46875 39.769531 13.878906 37.378906 13.878906 C 35.007812 13.878906 32.953125 15.46875 32.304688 17.707031 C 31.699219 17.417969 31.050781 17.261719 30.382812 17.261719 C 28.839844 17.261719 27.429688 18.042969 26.625 19.34375 C 25.910156 18.515625 24.882812 18.023438 23.765625 18.023438 C 21.707031 18.023438 20.03125 19.699219 20.03125 21.761719 C 20.03125 21.984375 20.054688 22.183594 20.097656 22.410156 C 19.472656 22.164062 18.800781 22.027344 18.109375 22.027344 C 15.160156 22.027344 12.765625 24.425781 12.765625 27.378906 C 12.765625 28.632812 13.191406 29.84375 13.996094 30.804688 C 13.101562 31.230469 12.496094 32.148438 12.496094 33.175781 C 12.496094 33.691406 12.65625 34.207031 12.945312 34.632812 C 12.140625 34.992188 11.625 35.796875 11.625 36.714844 C 11.625 37.855469 12.476562 38.820312 13.570312 38.976562 C 13.167969 40.878906 11.761719 48.492188 11.804688 61.316406 C 11.894531 77.863281 19.40625 104.769531 19.496094 104.949219 C 21.125 108.351562 30.875 112.003906 45.671875 112.003906 C 58.304688 112.003906 71.535156 109.316406 71.894531 104.816406 C 71.894531 104.792969 71.917969 104.726562 71.9375 104.613281 C 72.429688 102.578125 73.683594 97.226562 75.046875 90.757812 C 75.070312 90.757812 75.070312 90.734375 75.089844 90.734375 C 75.203125 90.644531 86.78125 82.339844 93.46875 72.085938 C 97.402344 65.996094 98.855469 57.871094 97.15625 51.242188 Z M 79.5625 51.265625 C 80.679688 50.347656 85.171875 46.992188 88.546875 49.453125 C 93.265625 52.921875 91.613281 63.511719 87.050781 70.316406 C 83.429688 75.691406 78.824219 79.519531 77.015625 80.929688 C 78.378906 73.609375 79.496094 66.222656 79.605469 61.273438 C 79.695312 57.3125 79.675781 54.019531 79.5625 51.265625 Z M 12.207031 36.671875 C 12.207031 35.886719 12.742188 35.191406 13.503906 34.992188 C 13.59375 34.96875 13.683594 34.902344 13.707031 34.789062 C 13.726562 34.699219 13.707031 34.589844 13.636719 34.519531 C 13.28125 34.140625 13.078125 33.648438 13.078125 33.109375 C 13.078125 32.191406 13.683594 31.386719 14.578125 31.117188 C 14.667969 31.09375 14.753906 31.007812 14.777344 30.917969 C 14.800781 30.828125 14.777344 30.714844 14.710938 30.648438 C 13.839844 29.753906 13.347656 28.566406 13.347656 27.3125 C 13.347656 24.671875 15.492188 22.519531 18.132812 22.519531 C 18.9375 22.519531 19.71875 22.722656 20.410156 23.101562 C 20.523438 23.148438 20.636719 23.148438 20.722656 23.082031 C 20.8125 23.015625 20.835938 22.878906 20.8125 22.769531 C 20.703125 22.433594 20.636719 22.074219 20.636719 21.714844 C 20.636719 19.96875 22.066406 18.535156 23.808594 18.535156 C 24.882812 18.535156 25.867188 19.074219 26.46875 19.96875 C 26.515625 20.058594 26.625 20.105469 26.714844 20.105469 C 26.804688 20.105469 26.894531 20.035156 26.9375 19.945312 C 27.609375 18.625 28.929688 17.796875 30.425781 17.796875 C 31.121094 17.796875 31.789062 17.976562 32.394531 18.335938 C 32.460938 18.378906 32.574219 18.378906 32.640625 18.355469 C 32.730469 18.3125 32.773438 18.246094 32.796875 18.15625 C 33.242188 15.984375 35.1875 14.417969 37.402344 14.417969 C 39.660156 14.417969 41.605469 16.027344 42.027344 18.269531 C 42.050781 18.355469 42.117188 18.445312 42.207031 18.492188 C 42.296875 18.515625 42.410156 18.492188 42.476562 18.425781 C 43.191406 17.773438 44.109375 17.417969 45.046875 17.417969 C 45.917969 17.417969 46.789062 17.730469 47.460938 18.289062 C 47.527344 18.335938 47.59375 18.355469 47.660156 18.355469 C 47.730469 18.355469 47.796875 18.3125 47.839844 18.246094 C 48.355469 17.550781 49.136719 17.148438 50.007812 17.148438 C 50.96875 17.148438 51.84375 17.640625 52.335938 18.46875 C 52.378906 18.535156 52.46875 18.605469 52.558594 18.605469 C 52.648438 18.605469 52.738281 18.582031 52.78125 18.515625 C 53.429688 17.773438 54.367188 17.351562 55.328125 17.351562 C 56.648438 17.351562 57.8125 18.089844 58.390625 19.273438 C 58.4375 19.363281 58.527344 19.433594 58.636719 19.433594 C 58.75 19.433594 58.839844 19.363281 58.882812 19.273438 C 59.332031 18.378906 60.226562 17.820312 61.207031 17.820312 C 62.304688 17.820312 63.289062 18.515625 63.667969 19.566406 C 63.667969 19.566406 63.667969 19.589844 63.667969 19.589844 C 63.667969 19.589844 63.667969 19.589844 63.667969 19.609375 C 63.667969 19.632812 64.339844 21.019531 63.554688 22.386719 C 63.488281 22.5 63.511719 22.632812 63.601562 22.722656 C 63.691406 22.8125 63.824219 22.835938 63.9375 22.789062 C 63.957031 22.789062 65.925781 21.851562 67.738281 22.5 C 68.699219 22.835938 69.457031 23.574219 69.972656 24.691406 C 70.484375 25.789062 70.554688 26.796875 70.21875 27.738281 C 69.523438 29.550781 67.421875 30.445312 67.402344 30.445312 C 67.265625 30.511719 67.199219 30.671875 67.246094 30.804688 C 67.289062 30.917969 67.402344 30.984375 67.511719 30.984375 C 67.558594 30.984375 67.578125 30.984375 67.625 30.960938 C 67.714844 30.917969 69.972656 29.953125 70.730469 27.9375 C 71.15625 26.863281 71.066406 25.679688 70.484375 24.445312 C 69.90625 23.191406 69.03125 22.363281 67.914062 21.960938 C 66.550781 21.46875 65.144531 21.78125 64.339844 22.027344 C 64.71875 20.910156 64.382812 19.878906 64.25 19.519531 C 65.121094 18.023438 66.730469 17.105469 68.472656 17.105469 C 71.113281 17.105469 73.257812 19.164062 73.371094 21.804688 C 73.371094 21.894531 73.414062 21.960938 73.480469 22.007812 C 73.546875 22.050781 73.636719 22.074219 73.707031 22.050781 C 73.929688 22.007812 74.175781 21.984375 74.398438 21.984375 C 76.1875 21.984375 77.640625 23.4375 77.640625 25.230469 C 77.640625 27.019531 76.1875 28.476562 74.398438 28.476562 C 74.242188 28.476562 74.128906 28.609375 74.128906 28.746094 C 74.128906 28.902344 74.265625 29.011719 74.398438 29.011719 C 75.472656 29.011719 76.433594 28.566406 77.101562 27.871094 C 77.328125 28.230469 77.4375 28.519531 77.371094 28.789062 C 77.304688 29.101562 77.015625 29.261719 77.015625 29.261719 C 76.878906 29.328125 76.8125 29.460938 76.855469 29.59375 C 76.902344 29.730469 77.035156 29.820312 77.171875 29.773438 C 77.257812 29.753906 79.359375 29.371094 80.097656 32.214844 C 80.410156 33.402344 80.097656 34.476562 79.203125 35.371094 C 78.511719 36.066406 77.707031 36.421875 77.683594 36.421875 C 77.550781 36.492188 77.484375 36.625 77.527344 36.757812 C 77.90625 37.921875 77.328125 38.167969 77.257812 38.191406 C 77.257812 38.191406 77.238281 38.191406 77.238281 38.214844 C 77.214844 38.214844 77.191406 38.238281 77.171875 38.257812 C 77.171875 38.257812 77.148438 38.28125 77.148438 38.28125 C 77.125 38.304688 77.125 38.304688 77.101562 38.328125 C 77.101562 38.328125 77.082031 38.347656 77.082031 38.347656 C 77.082031 38.371094 77.058594 38.394531 77.058594 38.417969 C 77.058594 38.4375 77.058594 38.4375 77.058594 38.460938 C 77.058594 38.460938 77.058594 38.460938 77.058594 38.484375 C 77.058594 39.355469 74.6875 40.65625 68.003906 41.707031 C 62.035156 42.648438 54.078125 43.164062 45.605469 43.164062 C 37.15625 43.164062 29.195312 42.648438 23.207031 41.707031 C 20.546875 41.28125 18.554688 40.832031 17.148438 40.386719 C 17.148438 40.25 17.058594 40.117188 16.925781 40.09375 C 16.8125 40.074219 16.699219 40.117188 16.632812 40.207031 C 14.867188 39.582031 14.152344 38.976562 14.152344 38.484375 C 14.152344 38.347656 14.039062 38.214844 13.90625 38.214844 C 13.792969 38.191406 13.683594 38.257812 13.636719 38.371094 C 12.855469 38.28125 12.207031 37.542969 12.207031 36.671875 Z M 30.582031 99.53125 C 30.539062 99.332031 26.558594 82.71875 26.894531 60.644531 C 27.117188 60.667969 27.339844 60.714844 27.566406 60.734375 C 27.476562 64.808594 27.496094 70.71875 27.96875 76.789062 C 27.988281 76.945312 28.101562 77.054688 28.234375 77.054688 C 28.234375 77.054688 28.257812 77.054688 28.257812 77.054688 C 28.414062 77.035156 28.527344 76.898438 28.503906 76.765625 C 28.035156 70.742188 28.035156 64.878906 28.101562 60.824219 C 28.480469 60.871094 28.863281 60.914062 29.265625 60.960938 C 29.265625 60.980469 29.265625 61.003906 29.265625 61.027344 C 29.265625 61.96875 30.023438 62.726562 30.964844 62.726562 C 31.8125 62.726562 32.503906 62.101562 32.640625 61.316406 C 36.039062 61.609375 39.90625 61.789062 44.265625 61.789062 C 44.375 61.789062 44.511719 61.789062 44.621094 61.789062 C 44.621094 62.796875 44.644531 63.757812 44.644531 64.652344 C 44.644531 64.808594 44.777344 64.921875 44.914062 64.921875 C 45.070312 64.921875 45.179688 64.789062 45.179688 64.632812 C 45.160156 63.734375 45.160156 62.773438 45.160156 61.765625 C 45.359375 61.765625 45.5625 61.765625 45.761719 61.765625 C 45.628906 71.371094 45.402344 86.527344 45.402344 91.203125 C 45.402344 91.363281 45.539062 91.472656 45.671875 91.472656 C 45.804688 91.472656 45.941406 91.339844 45.941406 91.203125 C 45.941406 86.546875 46.140625 71.371094 46.296875 61.765625 C 50.8125 61.722656 54.882812 61.476562 58.460938 61.160156 C 58.390625 62.058594 58.347656 62.863281 58.304688 63.332031 C 58.28125 63.488281 58.414062 63.625 58.546875 63.625 C 58.546875 63.625 58.570312 63.625 58.570312 63.625 C 58.707031 63.625 58.839844 63.511719 58.839844 63.378906 C 58.882812 62.886719 58.929688 62.035156 58.996094 61.09375 C 60.402344 60.960938 61.722656 60.824219 62.953125 60.667969 C 62.820312 66.222656 62.4375 75.421875 61.523438 86.011719 C 61.5 86.167969 61.613281 86.300781 61.769531 86.324219 C 61.769531 86.324219 61.789062 86.324219 61.789062 86.324219 C 61.925781 86.324219 62.058594 86.210938 62.058594 86.078125 C 62.996094 75.398438 63.355469 66.152344 63.488281 60.601562 C 64.382812 60.488281 65.234375 60.378906 66.039062 60.242188 C 65.949219 63.601562 65.835938 67.183594 65.703125 69.667969 C 65.703125 69.824219 65.8125 69.960938 65.96875 69.960938 C 65.96875 69.960938 65.96875 69.960938 65.992188 69.960938 C 66.148438 69.960938 66.261719 69.847656 66.261719 69.691406 C 66.394531 67.160156 66.507812 63.535156 66.597656 60.132812 C 71.625 59.347656 74.757812 58.542969 75.761719 58.25 C 75.246094 76.71875 68.832031 101.1875 68.40625 102.800781 C 68.070312 103.070312 66.394531 104.414062 63.9375 105.105469 C 55.800781 107.390625 36.773438 109.921875 23.09375 103.070312 C 22.042969 102.308594 17.90625 85.539062 15.964844 69.398438 C 15.492188 65.527344 15.359375 61.699219 15.402344 58.140625 C 17.082031 58.699219 20.65625 59.730469 26.269531 60.558594 C 25.933594 82.742188 29.914062 99.441406 29.957031 99.644531 C 29.980469 99.777344 30.089844 99.867188 30.226562 99.867188 C 30.246094 99.867188 30.269531 99.867188 30.292969 99.867188 C 30.515625 99.847656 30.605469 99.6875 30.582031 99.53125 Z M 32.082031 61.25 C 31.96875 61.765625 31.523438 62.167969 30.964844 62.167969 C 30.335938 62.167969 29.824219 61.652344 29.824219 61.027344 C 30.5625 61.09375 31.320312 61.183594 32.082031 61.25 Z M 29.980469 60.488281 C 30.179688 60.132812 30.539062 59.90625 30.964844 59.90625 C 31.476562 59.90625 31.902344 60.242188 32.035156 60.714844 C 31.34375 60.625 30.648438 60.558594 29.980469 60.488281 Z M 66.753906 49.988281 C 66.753906 49.339844 67.289062 48.804688 67.9375 48.804688 C 68.585938 48.804688 69.121094 49.339844 69.121094 49.988281 C 69.121094 50.640625 68.585938 51.175781 67.9375 51.175781 C 67.289062 51.175781 66.753906 50.660156 66.753906 49.988281 Z M 93.019531 71.707031 C 87.140625 80.726562 77.417969 88.25 75.226562 89.882812 C 75.761719 87.285156 76.320312 84.535156 76.835938 81.757812 C 78.175781 80.773438 83.453125 76.652344 87.5 70.632812 C 89.824219 67.160156 91.433594 62.683594 91.8125 58.609375 C 92.238281 54.132812 91.1875 50.730469 88.863281 49.027344 C 87.117188 47.730469 84.816406 47.683594 82.265625 48.894531 C 81.082031 49.453125 80.121094 50.125 79.539062 50.59375 C 79.449219 48.558594 79.316406 46.855469 79.160156 45.402344 C 79.988281 44.683594 85.398438 40.453125 91.453125 43.699219 C 93.847656 44.976562 95.679688 47.730469 96.617188 51.402344 C 98.273438 57.847656 96.863281 65.816406 93.019531 71.707031 Z M 71.425781 104.414062 C 71.359375 104.660156 71.359375 104.660156 71.359375 104.683594 C 71.246094 106.382812 68.496094 108.105469 63.800781 109.359375 C 58.949219 110.660156 52.511719 111.375 45.695312 111.375 C 31.65625 111.375 21.640625 107.972656 20.007812 104.660156 C 19.785156 103.898438 12.453125 77.636719 12.363281 61.25 C 12.296875 49.140625 13.570312 41.707031 14.039062 39.355469 C 14.488281 39.847656 15.335938 40.320312 16.566406 40.765625 C 16.230469 42.535156 15.070312 49.207031 14.914062 57.535156 C 14.890625 57.558594 14.867188 57.601562 14.84375 57.625 C 14.800781 57.714844 14.84375 57.824219 14.890625 57.894531 C 14.824219 61.542969 14.980469 65.480469 15.449219 69.46875 C 16.320312 76.609375 17.75 84.890625 19.40625 92.210938 C 20.144531 95.457031 21.933594 103.09375 22.894531 103.5625 C 29.644531 106.941406 37.648438 108.0625 45.070312 108.0625 C 52.847656 108.0625 59.957031 106.808594 64.160156 105.621094 C 67.042969 104.816406 68.855469 103.226562 68.921875 103.160156 C 68.964844 103.113281 68.988281 103.070312 69.011719 103.023438 C 69.101562 102.710938 77.171875 72.488281 76.386719 53.191406 C 76.386719 53.035156 76.253906 52.921875 76.097656 52.921875 C 75.941406 52.921875 75.828125 53.058594 75.828125 53.214844 C 75.894531 54.648438 75.894531 56.125 75.875 57.648438 C 75.136719 57.871094 71.984375 58.722656 66.707031 59.550781 C 66.796875 55.742188 66.863281 52.339844 66.886719 51.355469 C 67.175781 51.578125 67.535156 51.691406 67.914062 51.691406 C 68.875 51.691406 69.660156 50.90625 69.660156 49.945312 C 69.660156 48.984375 68.875 48.199219 67.914062 48.199219 C 66.953125 48.199219 66.171875 48.984375 66.171875 49.945312 C 66.171875 50.28125 66.261719 50.570312 66.417969 50.839844 C 66.351562 50.886719 66.328125 50.953125 66.328125 51.042969 C 66.328125 51.109375 66.261719 55.070312 66.148438 59.617188 C 65.34375 59.730469 64.496094 59.863281 63.601562 59.976562 C 63.667969 56.886719 63.667969 55.09375 63.667969 55.050781 C 63.667969 54.894531 63.535156 54.78125 63.398438 54.78125 C 63.242188 54.78125 63.132812 54.914062 63.132812 55.050781 C 63.132812 55.09375 63.132812 56.929688 63.0625 60.0625 C 61.835938 60.222656 60.515625 60.355469 59.128906 60.488281 C 59.265625 58.339844 59.421875 55.945312 59.421875 55.898438 C 59.421875 55.742188 59.308594 55.609375 59.152344 55.609375 C 58.996094 55.609375 58.863281 55.722656 58.863281 55.878906 C 58.863281 55.921875 58.707031 58.386719 58.570312 60.558594 C 54.996094 60.871094 50.925781 61.117188 46.386719 61.160156 C 46.453125 56.75 46.5 53.640625 46.5 53.527344 C 46.5 53.371094 46.386719 53.234375 46.230469 53.234375 C 46.074219 53.234375 45.964844 53.347656 45.964844 53.503906 C 45.964844 53.59375 45.917969 56.707031 45.851562 61.140625 C 45.648438 61.140625 45.449219 61.140625 45.226562 61.140625 C 45.203125 56.839844 45.246094 52.339844 45.246094 52.273438 C 45.246094 52.117188 45.136719 51.984375 44.980469 51.984375 C 44.84375 51.984375 44.6875 52.09375 44.6875 52.25 C 44.6875 52.320312 44.644531 56.816406 44.667969 61.117188 C 44.554688 61.117188 44.421875 61.117188 44.308594 61.117188 C 39.925781 61.117188 36.058594 60.9375 32.683594 60.644531 C 32.550781 59.839844 31.855469 59.234375 31.007812 59.234375 C 30.292969 59.234375 29.667969 59.683594 29.421875 60.3125 C 28.996094 60.265625 28.570312 60.199219 28.144531 60.152344 C 28.214844 57.242188 28.324219 55.386719 28.324219 55.339844 C 28.324219 55.183594 28.214844 55.050781 28.058594 55.050781 C 27.902344 55.050781 27.765625 55.160156 27.765625 55.316406 C 27.765625 55.363281 27.65625 57.175781 27.585938 60.085938 C 27.363281 60.0625 27.140625 60.019531 26.917969 59.996094 C 27.007812 55.722656 27.230469 51.242188 27.699219 46.65625 C 27.722656 46.496094 27.609375 46.363281 27.453125 46.339844 C 27.296875 46.320312 27.164062 46.429688 27.140625 46.585938 C 26.671875 51.175781 26.425781 55.652344 26.359375 59.90625 C 20.65625 59.078125 17.082031 58.003906 15.492188 57.46875 C 15.648438 49.273438 16.789062 42.714844 17.125 40.855469 C 18.644531 41.347656 20.679688 41.773438 23.207031 42.175781 C 29.21875 43.117188 37.199219 43.632812 45.695312 43.632812 C 54.191406 43.632812 62.171875 43.117188 68.183594 42.175781 C 73.4375 41.347656 76.542969 40.339844 77.4375 39.15625 C 77.863281 40.363281 78.710938 43.65625 79.003906 50.90625 C 78.980469 50.929688 78.957031 50.953125 78.9375 50.953125 C 78.824219 51.066406 78.824219 51.242188 78.914062 51.355469 C 78.9375 51.378906 78.980469 51.402344 79.003906 51.421875 C 79.09375 54.109375 79.136719 57.332031 79.027344 61.160156 C 78.890625 66.222656 77.730469 73.832031 76.320312 81.332031 L 76.207031 81.914062 C 74.355469 91.945312 72.117188 101.523438 71.425781 104.414062 Z M 71.425781 104.414062 " fill-opacity="1" fill-rule="nonzero"/></g><path fill="#1d1d1b" d="M 43.929688 49.722656 C 43.773438 49.722656 43.636719 49.832031 43.636719 49.988281 C 43.636719 50.058594 43.546875 55.632812 43.636719 59.078125 C 43.636719 59.234375 43.773438 59.347656 43.90625 59.347656 C 44.0625 59.347656 44.175781 59.214844 44.175781 59.058594 C 44.085938 55.609375 44.175781 50.035156 44.175781 49.988281 C 44.21875 49.855469 44.085938 49.722656 43.929688 49.722656 Z M 43.929688 49.722656 " fill-opacity="1" fill-rule="nonzero"/><path fill="#eddcd4" d="M 42.632812 37.339844 C 42.632812 37.414062 42.605469 37.480469 42.554688 37.53125 C 42.5 37.582031 42.4375 37.609375 42.363281 37.609375 C 42.289062 37.609375 42.226562 37.582031 42.175781 37.53125 C 42.121094 37.480469 42.09375 37.414062 42.09375 37.339844 C 42.09375 37.265625 42.121094 37.203125 42.175781 37.152344 C 42.226562 37.097656 42.289062 37.074219 42.363281 37.074219 C 42.4375 37.074219 42.5 37.097656 42.554688 37.152344 C 42.605469 37.203125 42.632812 37.265625 42.632812 37.339844 Z M 42.632812 37.339844 " fill-opacity="1" fill-rule="nonzero"/><path fill="#eddcd4" d="M 43.058594 38.011719 C 43.058594 38.085938 43.03125 38.152344 42.976562 38.203125 C 42.925781 38.253906 42.863281 38.28125 42.789062 38.28125 C 42.714844 38.28125 42.652344 38.253906 42.597656 38.203125 C 42.546875 38.152344 42.519531 38.085938 42.519531 38.011719 C 42.519531 37.9375 42.546875 37.875 42.597656 37.824219 C 42.652344 37.769531 42.714844 37.746094 42.789062 37.746094 C 42.863281 37.746094 42.925781 37.769531 42.976562 37.824219 C 43.03125 37.875 43.058594 37.9375 43.058594 38.011719 Z M 43.058594 38.011719 " fill-opacity="1" fill-rule="nonzero"/><path fill="#eddcd4" d="M 44.421875 39.445312 C 44.421875 39.519531 44.394531 39.582031 44.34375 39.636719 C 44.289062 39.6875 44.226562 39.714844 44.152344 39.714844 C 44.078125 39.714844 44.015625 39.6875 43.960938 39.636719 C 43.910156 39.582031 43.882812 39.519531 43.882812 39.445312 C 43.882812 39.371094 43.910156 39.308594 43.960938 39.257812 C 44.015625 39.203125 44.078125 39.175781 44.152344 39.175781 C 44.226562 39.175781 44.289062 39.203125 44.34375 39.257812 C 44.394531 39.308594 44.421875 39.371094 44.421875 39.445312 Z M 44.421875 39.445312 " fill-opacity="1" fill-rule="nonzero"/><path fill="#eddcd4" d="M 46.769531 37.230469 C 46.769531 37.335938 46.730469 37.425781 46.65625 37.5 C 46.582031 37.574219 46.492188 37.609375 46.386719 37.609375 C 46.28125 37.609375 46.191406 37.574219 46.117188 37.5 C 46.042969 37.425781 46.007812 37.335938 46.007812 37.230469 C 46.007812 37.125 46.042969 37.035156 46.117188 36.960938 C 46.191406 36.886719 46.28125 36.847656 46.386719 36.847656 C 46.492188 36.847656 46.582031 36.886719 46.65625 36.960938 C 46.730469 37.035156 46.769531 37.125 46.769531 37.230469 Z M 46.769531 37.230469 " fill-opacity="1" fill-rule="nonzero"/><path fill="#eddcd4" d="M 43.4375 40.09375 C 43.4375 40.199219 43.398438 40.289062 43.324219 40.363281 C 43.25 40.4375 43.160156 40.476562 43.058594 40.476562 C 42.953125 40.476562 42.863281 40.4375 42.789062 40.363281 C 42.714844 40.289062 42.675781 40.199219 42.675781 40.09375 C 42.675781 39.988281 42.714844 39.898438 42.789062 39.824219 C 42.863281 39.75 42.953125 39.714844 43.058594 39.714844 C 43.160156 39.714844 43.25 39.75 43.324219 39.824219 C 43.398438 39.898438 43.4375 39.988281 43.4375 40.09375 Z M 43.4375 40.09375 " fill-opacity="1" fill-rule="nonzero"/><path fill="#eddcd4" d="M 48.042969 41.371094 C 48.042969 41.476562 48.003906 41.566406 47.929688 41.640625 C 47.855469 41.714844 47.765625 41.75 47.660156 41.75 C 47.558594 41.75 47.46875 41.714844 47.394531 41.640625 C 47.320312 41.566406 47.28125 41.476562 47.28125 41.371094 C 47.28125 41.265625 47.320312 41.175781 47.394531 41.101562 C 47.46875 41.027344 47.558594 40.992188 47.660156 40.992188 C 47.765625 40.992188 47.855469 41.027344 47.929688 41.101562 C 48.003906 41.175781 48.042969 41.265625 48.042969 41.371094 Z M 48.042969 41.371094 " fill-opacity="1" fill-rule="nonzero"/><path fill="#eddcd4" d="M 53.5625 38.503906 C 53.5625 38.609375 53.527344 38.699219 53.453125 38.773438 C 53.378906 38.847656 53.289062 38.886719 53.183594 38.886719 C 53.078125 38.886719 52.988281 38.847656 52.914062 38.773438 C 52.839844 38.699219 52.804688 38.609375 52.804688 38.503906 C 52.804688 38.402344 52.839844 38.3125 52.914062 38.238281 C 52.988281 38.164062 53.078125 38.125 53.183594 38.125 C 53.289062 38.125 53.378906 38.164062 53.453125 38.238281 C 53.527344 38.3125 53.5625 38.402344 53.5625 38.503906 Z M 53.5625 38.503906 " fill-opacity="1" fill-rule="nonzero"/><path fill="#eddcd4" d="M 52.804688 37.609375 C 52.804688 37.714844 52.765625 37.804688 52.691406 37.878906 C 52.617188 37.953125 52.527344 37.992188 52.421875 37.992188 C 52.320312 37.992188 52.230469 37.953125 52.15625 37.878906 C 52.082031 37.804688 52.042969 37.714844 52.042969 37.609375 C 52.042969 37.503906 52.082031 37.414062 52.15625 37.339844 C 52.230469 37.265625 52.320312 37.230469 52.421875 37.230469 C 52.527344 37.230469 52.617188 37.265625 52.691406 37.339844 C 52.765625 37.414062 52.804688 37.503906 52.804688 37.609375 Z M 52.804688 37.609375 " fill-opacity="1" fill-rule="nonzero"/><path fill="#eddcd4" d="M 54.078125 35.484375 C 54.078125 35.589844 54.039062 35.679688 53.964844 35.753906 C 53.890625 35.828125 53.800781 35.863281 53.699219 35.863281 C 53.59375 35.863281 53.503906 35.828125 53.429688 35.753906 C 53.355469 35.679688 53.316406 35.589844 53.316406 35.484375 C 53.316406 35.378906 53.355469 35.289062 53.429688 35.214844 C 53.503906 35.140625 53.59375 35.101562 53.699219 35.101562 C 53.800781 35.101562 53.890625 35.140625 53.964844 35.214844 C 54.039062 35.289062 54.078125 35.378906 54.078125 35.484375 Z M 54.078125 35.484375 " fill-opacity="1" fill-rule="nonzero"/><path fill="#eddcd4" d="M 42.742188 33.738281 C 42.742188 33.84375 42.707031 33.933594 42.632812 34.007812 C 42.558594 34.082031 42.46875 34.117188 42.363281 34.117188 C 42.257812 34.117188 42.167969 34.082031 42.09375 34.007812 C 42.019531 33.933594 41.984375 33.84375 41.984375 33.738281 C 41.984375 33.632812 42.019531 33.542969 42.09375 33.46875 C 42.167969 33.394531 42.257812 33.355469 42.363281 33.355469 C 42.46875 33.355469 42.558594 33.394531 42.632812 33.46875 C 42.707031 33.542969 42.742188 33.632812 42.742188 33.738281 Z M 42.742188 33.738281 " fill-opacity="1" fill-rule="nonzero"/><path fill="#eddcd4" d="M 36.058594 28.945312 C 36.058594 29.050781 36.023438 29.140625 35.949219 29.214844 C 35.875 29.289062 35.785156 29.328125 35.679688 29.328125 C 35.574219 29.328125 35.484375 29.289062 35.410156 29.214844 C 35.335938 29.140625 35.300781 29.050781 35.300781 28.945312 C 35.300781 28.839844 35.335938 28.75 35.410156 28.675781 C 35.484375 28.601562 35.574219 28.566406 35.679688 28.566406 C 35.785156 28.566406 35.875 28.601562 35.949219 28.675781 C 36.023438 28.75 36.058594 28.839844 36.058594 28.945312 Z M 36.058594 28.945312 " fill-opacity="1" fill-rule="nonzero"/><path fill="#eddcd4" d="M 33.398438 26.417969 C 33.398438 26.523438 33.363281 26.613281 33.289062 26.6875 C 33.214844 26.761719 33.125 26.796875 33.019531 26.796875 C 32.914062 26.796875 32.824219 26.761719 32.75 26.6875 C 32.675781 26.613281 32.640625 26.523438 32.640625 26.417969 C 32.640625 26.3125 32.675781 26.222656 32.75 26.148438 C 32.824219 26.074219 32.914062 26.035156 33.019531 26.035156 C 33.125 26.035156 33.214844 26.074219 33.289062 26.148438 C 33.363281 26.222656 33.398438 26.3125 33.398438 26.417969 Z M 33.398438 26.417969 " fill-opacity="1" fill-rule="nonzero"/><path fill="#eddcd4" d="M 48.800781 38.503906 C 48.800781 38.609375 48.765625 38.699219 48.691406 38.773438 C 48.617188 38.847656 48.527344 38.886719 48.421875 38.886719 C 48.316406 38.886719 48.226562 38.847656 48.152344 38.773438 C 48.078125 38.699219 48.042969 38.609375 48.042969 38.503906 C 48.042969 38.402344 48.078125 38.3125 48.152344 38.238281 C 48.226562 38.164062 48.316406 38.125 48.421875 38.125 C 48.527344 38.125 48.617188 38.164062 48.691406 38.238281 C 48.765625 38.3125 48.800781 38.402344 48.800781 38.503906 Z M 48.800781 38.503906 " fill-opacity="1" fill-rule="nonzero"/><path fill="#ffd983" d="M 26.828125 104.59375 C 26.828125 104.59375 22.335938 94.855469 19.292969 79.25 C 16.253906 63.644531 16.367188 58.453125 16.367188 58.453125 L 15.492188 58.183594 C 15.492188 58.183594 15.226562 64.808594 16.386719 72.132812 C 17.550781 79.453125 20.121094 92.816406 21.460938 97.71875 C 22.804688 102.621094 22.9375 102.890625 23.675781 103.226562 C 24.390625 103.5625 26.828125 104.59375 26.828125 104.59375 Z M 26.828125 104.59375 " fill-opacity="1" fill-rule="nonzero"/><path fill="#ffd983" d="M 29.578125 90.847656 C 29.332031 90.847656 29.265625 90.691406 28.90625 88.003906 C 28.773438 86.882812 28.503906 84.621094 28.324219 82.09375 C 28.324219 81.9375 28.4375 81.800781 28.59375 81.800781 C 28.75 81.800781 28.882812 81.914062 28.882812 82.070312 C 29.128906 85.945312 29.644531 89.503906 29.824219 90.308594 C 29.867188 90.355469 29.890625 90.421875 29.914062 90.511719 C 29.914062 90.824219 29.6875 90.867188 29.644531 90.867188 C 29.621094 90.847656 29.597656 90.847656 29.578125 90.847656 Z M 29.578125 90.847656 " fill-opacity="1" fill-rule="nonzero"/><path fill="#ffd983" d="M 30.984375 92.480469 C 30.851562 92.480469 30.738281 92.390625 30.71875 92.257812 C 30.695312 92.167969 30.246094 90.0625 29.734375 84.78125 C 29.710938 84.621094 29.824219 84.488281 29.980469 84.464844 C 30.136719 84.445312 30.269531 84.554688 30.292969 84.710938 C 30.804688 89.949219 31.277344 92.101562 31.277344 92.121094 C 31.296875 92.277344 31.207031 92.414062 31.074219 92.457031 C 31.007812 92.480469 30.984375 92.480469 30.984375 92.480469 Z M 30.984375 92.480469 " fill-opacity="1" fill-rule="nonzero"/><path fill="#ffd983" d="M 47.082031 78.578125 C 46.925781 78.578125 46.789062 78.445312 46.8125 78.289062 L 46.902344 64.609375 C 46.902344 64.453125 47.035156 64.339844 47.171875 64.339844 C 47.328125 64.339844 47.4375 64.472656 47.4375 64.632812 L 47.347656 78.308594 C 47.347656 78.464844 47.214844 78.578125 47.082031 78.578125 Z M 47.082031 78.578125 " fill-opacity="1" fill-rule="nonzero"/><path fill="#ffd983" d="M 48.332031 75.601562 C 48.175781 75.601562 48.0625 75.464844 48.0625 75.332031 L 48.0625 66.601562 C 48.0625 66.445312 48.199219 66.332031 48.332031 66.332031 C 48.464844 66.332031 48.601562 66.46875 48.601562 66.601562 L 48.601562 75.332031 C 48.601562 75.488281 48.488281 75.601562 48.332031 75.601562 Z M 48.332031 75.601562 " fill-opacity="1" fill-rule="nonzero"/><path fill="#ffd983" d="M 49.628906 74.929688 C 49.472656 74.929688 49.359375 74.796875 49.359375 74.660156 L 49.359375 67.472656 C 49.359375 67.316406 49.496094 67.207031 49.628906 67.207031 C 49.761719 67.207031 49.898438 67.339844 49.898438 67.472656 L 49.898438 74.660156 C 49.898438 74.796875 49.785156 74.929688 49.628906 74.929688 Z M 49.628906 74.929688 " fill-opacity="1" fill-rule="nonzero"/><path fill="#ffd983" d="M 43.4375 84.644531 C 43.28125 84.644531 43.167969 84.535156 43.167969 84.375 L 43.035156 78.824219 C 43.035156 78.667969 43.144531 78.535156 43.304688 78.535156 C 43.460938 78.535156 43.59375 78.644531 43.59375 78.800781 L 43.726562 84.355469 C 43.726562 84.511719 43.617188 84.644531 43.4375 84.644531 C 43.460938 84.644531 43.4375 84.644531 43.4375 84.644531 Z M 43.4375 84.644531 " fill-opacity="1" fill-rule="nonzero"/><path fill="#ffd983" d="M 32.125 73.25 C 28.078125 73.117188 23.765625 71.972656 23.71875 71.953125 C 23.5625 71.90625 23.472656 71.75 23.519531 71.617188 C 23.5625 71.460938 23.71875 71.371094 23.855469 71.414062 C 23.898438 71.4375 28.144531 72.554688 32.125 72.691406 C 32.28125 72.691406 32.394531 72.824219 32.394531 72.980469 C 32.417969 73.117188 32.28125 73.25 32.125 73.25 Z M 32.125 73.25 " fill-opacity="1" fill-rule="nonzero"/><path fill="#ffd983" d="M 31.410156 74.527344 C 28.480469 74.390625 24.523438 73.207031 24.347656 73.160156 C 24.191406 73.117188 24.121094 72.960938 24.167969 72.800781 C 24.210938 72.644531 24.367188 72.578125 24.523438 72.625 C 24.570312 72.644531 28.59375 73.832031 31.433594 73.964844 C 31.589844 73.964844 31.699219 74.101562 31.699219 74.257812 C 31.699219 74.414062 31.566406 74.527344 31.410156 74.527344 Z M 31.410156 74.527344 " fill-opacity="1" fill-rule="nonzero"/><path fill="#ffd983" d="M 53.453125 79.675781 C 53.453125 79.839844 53.421875 79.996094 53.359375 80.148438 C 53.296875 80.296875 53.207031 80.429688 53.089844 80.546875 C 52.976562 80.660156 52.84375 80.75 52.691406 80.8125 C 52.542969 80.875 52.386719 80.90625 52.222656 80.90625 C 52.058594 80.90625 51.902344 80.875 51.75 80.8125 C 51.601562 80.75 51.46875 80.660156 51.351562 80.546875 C 51.238281 80.429688 51.148438 80.296875 51.085938 80.148438 C 51.023438 79.996094 50.992188 79.839844 50.992188 79.675781 C 50.992188 79.511719 51.023438 79.355469 51.085938 79.203125 C 51.148438 79.054688 51.238281 78.921875 51.351562 78.804688 C 51.46875 78.6875 51.601562 78.601562 51.75 78.539062 C 51.902344 78.476562 52.058594 78.445312 52.222656 78.445312 C 52.386719 78.445312 52.542969 78.476562 52.691406 78.539062 C 52.84375 78.601562 52.976562 78.6875 53.089844 78.804688 C 53.207031 78.921875 53.296875 79.054688 53.359375 79.203125 C 53.421875 79.355469 53.453125 79.511719 53.453125 79.675781 Z M 53.453125 79.675781 " fill-opacity="1" fill-rule="nonzero"/><path fill="#ffd983" d="M 42.09375 65.304688 C 42.09375 65.453125 42.042969 65.578125 41.9375 65.683594 C 41.832031 65.789062 41.707031 65.839844 41.558594 65.839844 C 41.410156 65.839844 41.285156 65.789062 41.179688 65.683594 C 41.074219 65.578125 41.023438 65.453125 41.023438 65.304688 C 41.023438 65.15625 41.074219 65.027344 41.179688 64.921875 C 41.285156 64.816406 41.410156 64.765625 41.558594 64.765625 C 41.707031 64.765625 41.832031 64.816406 41.9375 64.921875 C 42.042969 65.027344 42.09375 65.15625 42.09375 65.304688 Z M 42.09375 65.304688 " fill-opacity="1" fill-rule="nonzero"/><path fill="#ffd983" d="M 37.265625 71.144531 C 37.265625 71.292969 37.214844 71.421875 37.109375 71.527344 C 37.003906 71.628906 36.878906 71.683594 36.730469 71.683594 C 36.582031 71.683594 36.457031 71.628906 36.351562 71.527344 C 36.246094 71.421875 36.195312 71.292969 36.195312 71.144531 C 36.195312 70.996094 36.246094 70.871094 36.351562 70.765625 C 36.457031 70.660156 36.582031 70.609375 36.730469 70.609375 C 36.878906 70.609375 37.003906 70.660156 37.109375 70.765625 C 37.214844 70.871094 37.265625 70.996094 37.265625 71.144531 Z M 37.265625 71.144531 " fill-opacity="1" fill-rule="nonzero"/><path fill="#ffd983" d="M 44.578125 89.480469 C 44.421875 89.480469 44.308594 89.367188 44.308594 89.210938 C 44.242188 86.457031 44.175781 80.636719 44.175781 80.59375 C 44.175781 80.4375 44.285156 80.300781 44.441406 80.300781 C 44.597656 80.300781 44.710938 80.414062 44.710938 80.570312 C 44.710938 80.636719 44.777344 86.4375 44.84375 89.191406 C 44.867188 89.347656 44.757812 89.480469 44.578125 89.480469 C 44.597656 89.480469 44.578125 89.480469 44.578125 89.480469 Z M 44.578125 89.480469 " fill-opacity="1" fill-rule="nonzero"/><path fill="#ffd983" d="M 55.933594 78.109375 C 55.933594 78.207031 55.898438 78.292969 55.828125 78.363281 C 55.757812 78.429688 55.675781 78.464844 55.574219 78.464844 C 55.476562 78.464844 55.390625 78.429688 55.324219 78.363281 C 55.253906 78.292969 55.21875 78.207031 55.21875 78.109375 C 55.21875 78.007812 55.253906 77.925781 55.324219 77.855469 C 55.390625 77.785156 55.476562 77.75 55.574219 77.75 C 55.675781 77.75 55.757812 77.785156 55.828125 77.855469 C 55.898438 77.925781 55.933594 78.007812 55.933594 78.109375 Z M 55.933594 78.109375 " fill-opacity="1" fill-rule="nonzero"/><path fill="#ffd983" d="M 33.0625 67.226562 C 33.0625 67.363281 32.996094 67.429688 32.863281 67.429688 C 32.730469 67.429688 32.660156 67.363281 32.660156 67.226562 C 32.660156 67.09375 32.730469 67.027344 32.863281 67.027344 C 32.996094 67.027344 33.0625 67.09375 33.0625 67.226562 Z M 33.0625 67.226562 " fill-opacity="1" fill-rule="nonzero"/><path fill="#ffd983" d="M 36.214844 69.332031 C 36.214844 69.457031 36.171875 69.5625 36.085938 69.648438 C 36 69.738281 35.894531 69.78125 35.769531 69.78125 C 35.644531 69.78125 35.539062 69.738281 35.453125 69.648438 C 35.367188 69.5625 35.320312 69.457031 35.320312 69.332031 C 35.320312 69.207031 35.367188 69.101562 35.453125 69.015625 C 35.539062 68.929688 35.644531 68.886719 35.769531 68.886719 C 35.894531 68.886719 36 68.929688 36.085938 69.015625 C 36.171875 69.101562 36.214844 69.207031 36.214844 69.332031 Z M 36.214844 69.332031 " fill-opacity="1" fill-rule="nonzero"/><path fill="#ffd983" d="M 35.320312 71.035156 C 35.320312 71.167969 35.253906 71.234375 35.121094 71.234375 C 34.988281 71.234375 34.917969 71.167969 34.917969 71.035156 C 34.917969 70.898438 34.988281 70.832031 35.121094 70.832031 C 35.253906 70.832031 35.320312 70.898438 35.320312 71.035156 Z M 35.320312 71.035156 " fill-opacity="1" fill-rule="nonzero"/><path fill="#ffd983" d="M 35.96875 72.847656 C 35.96875 72.980469 35.902344 73.046875 35.769531 73.046875 C 35.636719 73.046875 35.566406 72.980469 35.566406 72.847656 C 35.566406 72.714844 35.636719 72.644531 35.769531 72.644531 C 35.902344 72.644531 35.96875 72.714844 35.96875 72.847656 Z M 35.96875 72.847656 " fill-opacity="1" fill-rule="nonzero"/><path fill="#ffd983" d="M 39.324219 69.980469 C 39.324219 70.054688 39.296875 70.121094 39.246094 70.171875 C 39.191406 70.222656 39.128906 70.25 39.054688 70.25 C 38.980469 70.25 38.917969 70.222656 38.867188 70.171875 C 38.8125 70.121094 38.789062 70.054688 38.789062 69.980469 C 38.789062 69.90625 38.8125 69.84375 38.867188 69.792969 C 38.917969 69.738281 38.980469 69.714844 39.054688 69.714844 C 39.128906 69.714844 39.191406 69.738281 39.246094 69.792969 C 39.296875 69.84375 39.324219 69.90625 39.324219 69.980469 Z M 39.324219 69.980469 " fill-opacity="1" fill-rule="nonzero"/><path fill="#ffd983" d="M 65.164062 73.027344 C 65.164062 73.207031 65.101562 73.359375 64.976562 73.484375 C 64.847656 73.613281 64.695312 73.675781 64.515625 73.675781 C 64.339844 73.675781 64.1875 73.613281 64.058594 73.484375 C 63.933594 73.359375 63.871094 73.207031 63.871094 73.027344 C 63.871094 72.847656 63.933594 72.695312 64.058594 72.566406 C 64.1875 72.441406 64.339844 72.378906 64.515625 72.378906 C 64.695312 72.378906 64.847656 72.441406 64.976562 72.566406 C 65.101562 72.695312 65.164062 72.847656 65.164062 73.027344 Z M 65.164062 73.027344 " fill-opacity="1" fill-rule="nonzero"/><path fill="#ffd983" d="M 67.402344 71.796875 C 67.402344 71.972656 67.339844 72.128906 67.210938 72.253906 C 67.085938 72.382812 66.933594 72.445312 66.753906 72.445312 C 66.574219 72.445312 66.421875 72.382812 66.292969 72.253906 C 66.167969 72.128906 66.105469 71.972656 66.105469 71.796875 C 66.105469 71.617188 66.167969 71.460938 66.292969 71.335938 C 66.421875 71.210938 66.574219 71.144531 66.753906 71.144531 C 66.933594 71.144531 67.085938 71.210938 67.210938 71.335938 C 67.339844 71.460938 67.402344 71.617188 67.402344 71.796875 Z M 67.402344 71.796875 " fill-opacity="1" fill-rule="nonzero"/><path fill="#fdf4e3" d="M 31.363281 59.953125 C 31.503906 60.007812 31.628906 60.082031 31.742188 60.1875 C 31.851562 60.289062 31.9375 60.410156 32.003906 60.546875 C 32.066406 60.683594 32.101562 60.828125 32.105469 60.980469 C 32.113281 61.132812 32.089844 61.277344 32.035156 61.421875 C 31.984375 61.5625 31.90625 61.6875 31.804688 61.800781 C 31.699219 61.910156 31.582031 62 31.445312 62.0625 C 31.304688 62.125 31.160156 62.160156 31.011719 62.164062 C 30.859375 62.171875 30.714844 62.148438 30.570312 62.097656 C 30.429688 62.042969 30.304688 61.964844 30.191406 61.863281 C 30.082031 61.761719 29.996094 61.640625 29.929688 61.503906 C 29.867188 61.363281 29.832031 61.21875 29.828125 61.070312 C 29.820312 60.917969 29.84375 60.769531 29.898438 60.628906 C 29.949219 60.488281 30.027344 60.359375 30.128906 60.25 C 30.230469 60.136719 30.351562 60.050781 30.488281 59.988281 C 30.625 59.925781 30.769531 59.890625 30.921875 59.882812 C 31.074219 59.878906 31.21875 59.902344 31.363281 59.953125 Z M 31.363281 59.953125 " fill-opacity="1" fill-rule="nonzero"/></svg>